<svg xmlns="http://www.w3.org/2000/svg" xmlns:xlink="http://www.w3.org/1999/xlink" version="1.1" width="336.4421pt" height="346.2848pt" viewBox="0 0 336.4421 346.2848">
<defs>
<clipPath id="clip_0">
<path transform="matrix(1,0,0,-1,-64.8957,450.2952)" d="M-.000022888 594.75H841.5V.00018311L-.000007629 .00012207" fill-rule="evenodd"/>
</clipPath>
<clipPath id="clip_1">
<path transform="matrix(1,0,0,-1,-64.8957,450.2952)" d="M-.000022888 594.75H841.5V.00018311L-.000007629 .00012207" fill-rule="evenodd"/>
</clipPath>
<clipPath id="clip_2">
<path transform="matrix(1,0,0,-1,-64.8957,450.2952)" d="M-.000045776 594.75H841.5V.00018311L-.000045776 .00012207" fill-rule="evenodd"/>
</clipPath>
<clipPath id="clip_3">
<path transform="matrix(1,0,0,-1,-64.8957,450.2952)" d="M-.000045776 594.75H841.5V.00018311L-.000045776 .00012207" fill-rule="evenodd"/>
</clipPath>
<clipPath id="clip_4">
<path transform="matrix(1,0,0,-1,-64.8957,450.2952)" d="M-.000045776 594.75H841.5V.00018311L-.000030518 .00012207" fill-rule="evenodd"/>
</clipPath>
<clipPath id="clip_5">
<path transform="matrix(1,0,0,-1,-64.8957,450.2952)" d="M-.000045776 594.75H841.5V.00018311L-.000030518 .00012207" fill-rule="evenodd"/>
</clipPath>
<clipPath id="clip_6">
<path transform="matrix(1,0,0,-1,-64.8957,450.2952)" d="M-.000022888 594.75H841.5V.00018311L-.000015259 .000061035" fill-rule="evenodd"/>
</clipPath>
<clipPath id="clip_7">
<path transform="matrix(1,0,0,-1,-64.8957,450.2952)" d="M-.000007629 594.75H841.5V.000061035H.000022888" fill-rule="evenodd"/>
</clipPath>
<clipPath id="clip_8">
<path transform="matrix(1,0,0,-1,-64.8957,450.2952)" d="M0 594.75H841.5V.000061035H.000030518" fill-rule="evenodd"/>
</clipPath>
<clipPath id="clip_9">
<path transform="matrix(1,0,0,-1,-64.8957,450.2952)" d="M-.000015259 594.75H841.5V.00012207H0" fill-rule="evenodd"/>
</clipPath>
<clipPath id="clip_10">
<path transform="matrix(1,0,0,-1,-64.8957,450.2952)" d="M0 594.75H841.5V0H0" fill-rule="evenodd"/>
</clipPath>
<clipPath id="clip_11">
<path transform="matrix(1,0,0,-1,-64.8957,450.2952)" d="M-.000030518 594.75H841.5V.000061035H-.000061035" fill-rule="evenodd"/>
</clipPath>
<clipPath id="clip_12">
<path transform="matrix(1,0,0,-1,-64.8957,450.2952)" d="M-.000030518 594.75H841.5V.000061035H-.000061035" fill-rule="evenodd"/>
</clipPath>
<clipPath id="clip_13">
<path transform="matrix(1,0,0,-1,-64.8957,450.2952)" d="M-.000030518 594.75H841.5V.000061035H-.000061035" fill-rule="evenodd"/>
</clipPath>
<clipPath id="clip_14">
<path transform="matrix(1,0,0,-1,-64.8957,450.2952)" d="M-.000061035 594.75H841.5V.00012207L-.000061035 .000061035" fill-rule="evenodd"/>
</clipPath>
<clipPath id="clip_15">
<path transform="matrix(1,0,0,-1,-64.8957,450.2952)" d="M-.000022888 594.75H841.5V.00018311L-.000015259 .00012207" fill-rule="evenodd"/>
</clipPath>
<clipPath id="clip_16">
<path transform="matrix(1,0,0,-1,-64.8957,450.2952)" d="M-.000022888 594.75H841.5V.00018311L-.000015259 .00012207" fill-rule="evenodd"/>
</clipPath>
<clipPath id="clip_17">
<path transform="matrix(1,0,0,-1,-64.8957,450.2952)" d="M-.000022888 594.75H841.5V.00018311L-.000015259 .00012207" fill-rule="evenodd"/>
</clipPath>
<clipPath id="clip_18">
<path transform="matrix(1,0,0,-1,-64.8957,450.2952)" d="M0 594.75H841.5V.00012207H0" fill-rule="evenodd"/>
</clipPath>
<clipPath id="clip_19">
<path transform="matrix(1,0,0,-1,-64.8957,450.2952)" d="M-.000015259 594.75H841.5V.000061035H0" fill-rule="evenodd"/>
</clipPath>
<clipPath id="clip_20">
<path transform="matrix(1,0,0,-1,-64.8957,450.2952)" d="M-.000015259 594.75H841.5V.000061035H0" fill-rule="evenodd"/>
</clipPath>
<clipPath id="clip_21">
<path transform="matrix(1,0,0,-1,-64.8957,450.2952)" d="M-.000015259 594.75H841.5V.000061035H-.000061035" fill-rule="evenodd"/>
</clipPath>
<clipPath id="clip_22">
<path transform="matrix(1,0,0,-1,-64.8957,450.2952)" d="M-.000015259 594.75H841.5V.000061035H-.000061035" fill-rule="evenodd"/>
</clipPath>
<clipPath id="clip_23">
<path transform="matrix(1,0,0,-1,-64.8957,450.2952)" d="M-.000030518 594.75H841.5V.000061035L-.000076294 .00012207" fill-rule="evenodd"/>
</clipPath>
<clipPath id="clip_24">
<path transform="matrix(1,0,0,-1,-64.8957,450.2952)" d="M-.000015259 594.75H841.5V.000061035H-.000061035" fill-rule="evenodd"/>
</clipPath>
<clipPath id="clip_25">
<path transform="matrix(1,0,0,-1,-64.8957,450.2952)" d="M-.000022888 594.75H841.5V.00018311L-.000007629 .00012207" fill-rule="evenodd"/>
</clipPath>
<clipPath id="clip_26">
<path transform="matrix(1,0,0,-1,-64.8957,450.2952)" d="M-.000022888 594.75H841.5V.00018311L-.000007629 .00012207" fill-rule="evenodd"/>
</clipPath>
<clipPath id="clip_27">
<path transform="matrix(1,0,0,-1,-64.8957,450.2952)" d="M-.000045776 594.75H841.5V.00018311L-.000045776 .00012207" fill-rule="evenodd"/>
</clipPath>
<clipPath id="clip_28">
<path transform="matrix(1,0,0,-1,-64.8957,450.2952)" d="M-.000045776 594.75H841.5V.00018311L-.000045776 .00012207" fill-rule="evenodd"/>
</clipPath>
<clipPath id="clip_29">
<path transform="matrix(1,0,0,-1,-64.8957,450.2952)" d="M-.000045776 594.75H841.5V.00018311L-.000030518 .00012207" fill-rule="evenodd"/>
</clipPath>
<clipPath id="clip_30">
<path transform="matrix(1,0,0,-1,-64.8957,450.2952)" d="M-.000045776 594.75H841.5V.00018311L-.000030518 .00012207" fill-rule="evenodd"/>
</clipPath>
<clipPath id="clip_31">
<path transform="matrix(1,0,0,-1,-64.8957,450.2952)" d="M-.000022888 594.75H841.5V.00018311L-.000015259 .000061035" fill-rule="evenodd"/>
</clipPath>
<clipPath id="clip_32">
<path transform="matrix(1,0,0,-1,-64.8957,450.2952)" d="M-.000007629 594.75H841.5V.000061035H.000022888" fill-rule="evenodd"/>
</clipPath>
<clipPath id="clip_33">
<path transform="matrix(1,0,0,-1,-64.8957,450.2952)" d="M0 594.75H841.5V.000061035H.000030518" fill-rule="evenodd"/>
</clipPath>
<clipPath id="clip_34">
<path transform="matrix(1,0,0,-1,-64.8957,450.2952)" d="M-.000015259 594.75H841.5V.00012207H0" fill-rule="evenodd"/>
</clipPath>
<clipPath id="clip_35">
<path transform="matrix(1,0,0,-1,-64.8957,450.2952)" d="M0 594.75H841.5V0H0" fill-rule="evenodd"/>
</clipPath>
<clipPath id="clip_36">
<path transform="matrix(1,0,0,-1,-64.8957,450.2952)" d="M-.000030518 594.75H841.5V.000061035H-.000061035" fill-rule="evenodd"/>
</clipPath>
<clipPath id="clip_37">
<path transform="matrix(1,0,0,-1,-64.8957,450.2952)" d="M-.000030518 594.75H841.5V.000061035H-.000061035" fill-rule="evenodd"/>
</clipPath>
<clipPath id="clip_38">
<path transform="matrix(1,0,0,-1,-64.8957,450.2952)" d="M-.000030518 594.75H841.5V.000061035H-.000061035" fill-rule="evenodd"/>
</clipPath>
<clipPath id="clip_39">
<path transform="matrix(1,0,0,-1,-64.8957,450.2952)" d="M-.000061035 594.75H841.5V.00012207L-.000061035 .000061035" fill-rule="evenodd"/>
</clipPath>
<clipPath id="clip_40">
<path transform="matrix(1,0,0,-1,-64.8957,450.2952)" d="M-.000022888 594.75H841.5V.00018311L-.000015259 .00012207" fill-rule="evenodd"/>
</clipPath>
<clipPath id="clip_41">
<path transform="matrix(1,0,0,-1,-64.8957,450.2952)" d="M-.000022888 594.75H841.5V.00018311L-.000015259 .00012207" fill-rule="evenodd"/>
</clipPath>
<clipPath id="clip_42">
<path transform="matrix(1,0,0,-1,-64.8957,450.2952)" d="M-.000022888 594.75H841.5V.00018311L-.000015259 .00012207" fill-rule="evenodd"/>
</clipPath>
<clipPath id="clip_43">
<path transform="matrix(1,0,0,-1,-64.8957,450.2952)" d="M0 594.75H841.5V.00012207H0" fill-rule="evenodd"/>
</clipPath>
<clipPath id="clip_44">
<path transform="matrix(1,0,0,-1,-64.8957,450.2952)" d="M-.000015259 594.75H841.5V.000061035H0" fill-rule="evenodd"/>
</clipPath>
<clipPath id="clip_45">
<path transform="matrix(1,0,0,-1,-64.8957,450.2952)" d="M-.000015259 594.75H841.5V.000061035H0" fill-rule="evenodd"/>
</clipPath>
<clipPath id="clip_46">
<path transform="matrix(1,0,0,-1,-64.8957,450.2952)" d="M-.000015259 594.75H841.5V.000061035H-.000061035" fill-rule="evenodd"/>
</clipPath>
<clipPath id="clip_47">
<path transform="matrix(1,0,0,-1,-64.8957,450.2952)" d="M-.000015259 594.75H841.5V.000061035H-.000061035" fill-rule="evenodd"/>
</clipPath>
<clipPath id="clip_48">
<path transform="matrix(1,0,0,-1,-64.8957,450.2952)" d="M-.000030518 594.75H841.5V.000061035L-.000076294 .00012207" fill-rule="evenodd"/>
</clipPath>
<clipPath id="clip_49">
<path transform="matrix(1,0,0,-1,-64.8957,450.2952)" d="M-.000015259 594.75H841.5V.000061035H-.000061035" fill-rule="evenodd"/>
</clipPath>
<clipPath id="clip_50">
<path transform="matrix(1,0,0,-1,-64.8957,450.2952)" d="M.000030518 594.75H841.5V.00012207H.000030518" fill-rule="evenodd"/>
</clipPath>
<clipPath id="clip_51">
<path transform="matrix(1,0,0,-1,-64.8957,450.2952)" d="M-.000030518 594.75H841.5V.00018311L-.000091553 .00012207" fill-rule="evenodd"/>
</clipPath>
<clipPath id="clip_52">
<path transform="matrix(1,0,0,-1,-64.8957,450.2952)" d="M.000012539 0H841.5V594.75H.000012539Z" fill-rule="evenodd"/>
</clipPath>
<clipPath id="clip_53">
<path transform="matrix(1,0,0,-1,-64.8957,450.2952)" d="M-.000030518 594.75H841.5V0L-.000015259 .000061035" fill-rule="evenodd"/>
</clipPath>
<clipPath id="clip_54">
<path transform="matrix(1,0,0,-1,-64.8957,450.2952)" d="M.000012539 0H841.5V594.75H.000012539Z" fill-rule="evenodd"/>
</clipPath>
<clipPath id="clip_55">
<path transform="matrix(1,0,0,-1,-64.8957,450.2952)" d="M-.000045776 594.75H841.5V.00012207L-.000007629 .000061035" fill-rule="evenodd"/>
</clipPath>
<clipPath id="clip_56">
<path transform="matrix(1,0,0,-1,-64.8957,450.2952)" d="M-.000030518 594.75H841.5V.000061035L-.000045776 .00012207" fill-rule="evenodd"/>
</clipPath>
<clipPath id="clip_57">
<path transform="matrix(1,0,0,-1,-64.8957,450.2952)" d="M.000012539 0H841.5V594.75H.000012539Z" fill-rule="evenodd"/>
</clipPath>
</defs>
<g>
<g clip-path="url(#clip_0)">
<path transform="matrix(1,0,0,-1,-64.8957,450.2952)" d="M79.667 264.72 112.84 251.6 133.82 304.63 100.65 317.75 79.667 264.72Z" fill="#4672c4" fill-rule="evenodd"/>
</g>
<g clip-path="url(#clip_1)">
<path transform="matrix(1,0,0,-1,-64.8957,450.2952)" stroke-width=".75" stroke-linecap="square" stroke-miterlimit="10" stroke-linejoin="miter" fill="none" stroke="#d2d2d2" d="M79.667 264.72 112.84 251.6 133.82 304.63 100.65 317.75 79.667 264.72Z"/>
</g>
<g clip-path="url(#clip_2)">
<path transform="matrix(1,0,0,-1,-64.8957,450.2952)" d="M253.83 195.82 287 182.69 307.98 235.73 274.81 248.85 253.83 195.82Z" fill="#4672c4" fill-rule="evenodd"/>
</g>
<g clip-path="url(#clip_3)">
<path transform="matrix(1,0,0,-1,-64.8957,450.2952)" stroke-width=".75" stroke-linecap="square" stroke-miterlimit="10" stroke-linejoin="miter" fill="none" stroke="#d2d2d2" d="M253.83 195.82 287 182.69 307.98 235.73 274.81 248.85 253.83 195.82Z"/>
</g>
<g clip-path="url(#clip_4)">
<path transform="matrix(1,0,0,-1,-64.8957,450.2952)" d="M206.79 389.18 279.45 360.43 285.8 376.5 213.14 405.24 206.79 389.18Z" fill="#4672c4" fill-rule="evenodd"/>
</g>
<g clip-path="url(#clip_5)">
<path transform="matrix(1,0,0,-1,-64.8957,450.2952)" stroke-width=".75" stroke-linecap="square" stroke-miterlimit="10" stroke-linejoin="miter" fill="none" stroke="#d2d2d2" d="M206.79 389.18 279.45 360.43 285.8 376.5 213.14 405.24 206.79 389.18Z"/>
</g>
<g clip-path="url(#clip_6)">
<path transform="matrix(1,0,0,-1,-64.8957,450.2952)" stroke-width="1" stroke-linecap="round" stroke-linejoin="round" fill="none" stroke="#4672c4" d="M106.74 284.67 284.03 214.54"/>
</g>
<g clip-path="url(#clip_7)">
<path transform="matrix(1,0,0,-1,-64.8957,450.2952)" stroke-width="1" stroke-linecap="round" stroke-dasharray="1,2" stroke-linejoin="round" fill="none" stroke="#4672c4" d="M106.74 284.67 84.659 228.85"/>
</g>
<g clip-path="url(#clip_8)">
<path transform="matrix(1,0,0,-1,-64.8957,450.2952)" stroke-width="1" stroke-linecap="round" stroke-dasharray="1,2" stroke-linejoin="round" fill="none" stroke="#4672c4" d="M280.9 215.77 258.82 159.95"/>
</g>
<g clip-path="url(#clip_9)">
<path transform="matrix(1,0,0,-1,-64.8957,450.2952)" stroke-width="1" stroke-linecap="round" stroke-dasharray="1,2" stroke-linejoin="round" fill="none" stroke="#4672c4" d="M246.29 382.84 371.7 333.23"/>
</g>
<g clip-path="url(#clip_10)">
<path transform="matrix(1,0,0,-1,-64.8957,450.2952)" stroke-width="1" stroke-linecap="round" stroke-dasharray="1,2" stroke-linejoin="round" fill="none" stroke="#4672c4" d="M320.16 200.24 280.9 215.77"/>
</g>
<g clip-path="url(#clip_11)">
<path transform="matrix(1,0,0,-1,-64.8957,450.2952)" d="M319.45 207.78 325.76 205.33 320.16 200.24 319.45 207.78ZM366.1 328.14 372.41 325.69 371.7 333.23 366.1 328.14Z" fill="#4672c4" fill-rule="evenodd"/>
</g>
<g clip-path="url(#clip_12)">
<path transform="matrix(1,0,0,-1,-64.8957,450.2952)" stroke-width="1" stroke-linecap="round" stroke-linejoin="round" fill="none" stroke="#4672c4" d="M319.45 207.78 325.76 205.33 320.16 200.24 319.45 207.78ZM366.1 328.14 372.41 325.69 371.7 333.23 366.1 328.14ZM322.6 206.55 369.25 326.92"/>
</g>
<g clip-path="url(#clip_13)">
<path transform="matrix(1,0,0,-1,-64.8957,450.2952)" d="M350.31 258.12 354.97 270.15 341.54 275.35 336.88 263.32 350.31 258.12Z" fill="#ffffff" fill-rule="evenodd"/>
</g>
<g clip-path="url(#clip_14)">
<path transform="matrix(1,0,0,-1,-64.8957,450.2952)" d="M350.13 268.03C350.16 268.02 350.18 268.01 350.2 267.98 350.21 267.96 350.22 267.93 350.22 267.89 350.22 267.84 350.21 267.79 350.2 267.73 350.18 267.67 350.16 267.59 350.12 267.5 350.09 267.41 350.05 267.33 350.02 267.28 349.99 267.22 349.96 267.18 349.93 267.15 349.91 267.12 349.88 267.1 349.85 267.09 349.82 267.09 349.8 267.09 349.77 267.1L346.63 268.32 345.38 265.1 348.52 263.88C348.55 263.87 348.57 263.85 348.59 263.83 348.6 263.81 348.61 263.78 348.61 263.73 348.61 263.69 348.6 263.64 348.59 263.58 348.57 263.51 348.55 263.44 348.51 263.34 348.48 263.26 348.44 263.18 348.41 263.13 348.38 263.07 348.35 263.02 348.32 262.99 348.29 262.96 348.27 262.94 348.24 262.93 348.21 262.93 348.18 262.93 348.15 262.94L341.37 265.57C341.34 265.58 341.32 265.6 341.3 265.62 341.28 265.65 341.28 265.68 341.28 265.72 341.28 265.76 341.29 265.82 341.3 265.88 341.32 265.95 341.34 266.02 341.38 266.11 341.41 266.2 341.45 266.27 341.48 266.33 341.51 266.39 341.54 266.43 341.57 266.46 341.59 266.49 341.62 266.51 341.65 266.52 341.68 266.53 341.7 266.52 341.73 266.51L344.56 265.42 345.81 268.63 342.98 269.73C342.95 269.74 342.93 269.76 342.91 269.78 342.9 269.8 342.89 269.84 342.89 269.88 342.89 269.92 342.9 269.97 342.91 270.03 342.93 270.09 342.95 270.17 342.99 270.27 343.02 270.35 343.05 270.43 343.09 270.48 343.12 270.54 343.15 270.58 343.18 270.62 343.2 270.65 343.23 270.67 343.26 270.67 343.29 270.68 343.31 270.68 343.34 270.66Z" fill="#3d64ac"/>
</g>
<g clip-path="url(#clip_15)">
<path transform="matrix(1,0,0,-1,-64.8957,450.2952)" d="M92.196 229.51 89.707 223.21 84.659 228.85 92.196 229.51ZM253.77 165.58 251.28 159.29 258.82 159.95 253.77 165.58Z" fill="#4672c4" fill-rule="evenodd"/>
</g>
<g clip-path="url(#clip_16)">
<path transform="matrix(1,0,0,-1,-64.8957,450.2952)" stroke-width="1" stroke-linecap="round" stroke-linejoin="round" fill="none" stroke="#4672c4" d="M92.196 229.51 89.707 223.21 84.659 228.85 92.196 229.51ZM253.77 165.58 251.28 159.29 258.82 159.95 253.77 165.58ZM90.952 226.36 252.53 162.44"/>
</g>
<g clip-path="url(#clip_17)">
<path transform="matrix(1,0,0,-1,-64.8957,450.2952)" d="M163.14 190.06 175.05 185.35 180.34 198.74 168.43 203.45 163.14 190.06Z" fill="#ffffff" fill-rule="evenodd"/>
</g>
<g clip-path="url(#clip_18)">
<path transform="matrix(1,0,0,-1,-64.8957,450.2952)" d="M174.78 193.52C174.53 192.91 174.25 192.41 173.91 192.01 173.57 191.62 173.2 191.33 172.78 191.15 172.36 190.97 171.9 190.89 171.41 190.92 170.91 190.94 170.36 191.07 169.76 191.31L168.27 191.9C168.18 191.93 168.12 191.99 168.06 192.08 168.01 192.16 168.01 192.28 168.07 192.42L170.56 198.71C170.61 198.85 170.69 198.93 170.79 198.96 170.88 198.99 170.97 198.98 171.06 198.95L172.65 198.32C173.26 198.08 173.75 197.79 174.11 197.47 174.47 197.14 174.73 196.78 174.9 196.37 175.07 195.96 175.14 195.52 175.12 195.04 175.1 194.56 174.99 194.05 174.78 193.52ZM173.77 193.87C173.93 194.25 174.02 194.63 174.05 194.99 174.09 195.36 174.05 195.7 173.95 196.02 173.84 196.34 173.66 196.63 173.4 196.89 173.15 197.14 172.78 197.37 172.29 197.56L171.34 197.94 169.17 192.45 170.13 192.07C170.58 191.89 170.98 191.8 171.34 191.79 171.69 191.78 172.02 191.85 172.32 192 172.61 192.15 172.88 192.38 173.13 192.69 173.37 193 173.59 193.39 173.77 193.87Z" fill="#3d64ac"/>
</g>
<g clip-path="url(#clip_19)">
<path transform="matrix(1,0,0,-1,-64.8957,450.2952)" d="M247.81 386.81C245.62 387.65 243.16 386.55 242.32 384.36 241.48 382.16 242.58 379.7 244.78 378.87 246.97 378.03 249.43 379.13 250.27 381.32 251.1 383.51 250.01 385.97 247.81 386.81ZM193.87 245.63C196.06 244.79 198.52 245.89 199.36 248.09 200.2 250.28 199.1 252.74 196.9 253.58 194.71 254.42 192.25 253.32 191.41 251.12 190.58 248.93 191.67 246.47 193.87 245.63Z" fill="#4672c4" fill-rule="evenodd"/>
</g>
<g clip-path="url(#clip_20)">
<path transform="matrix(1,0,0,-1,-64.8957,450.2952)" stroke-width="1" stroke-linecap="round" stroke-linejoin="round" fill="none" stroke="#4672c4" d="M247.81 386.81C245.62 387.65 243.16 386.55 242.32 384.36 241.48 382.16 242.58 379.7 244.78 378.87 246.97 378.03 249.43 379.13 250.27 381.32 251.1 383.51 250.01 385.97 247.81 386.81ZM193.87 245.63C196.06 244.79 198.52 245.89 199.36 248.09 200.2 250.28 199.1 252.74 196.9 253.58 194.71 254.42 192.25 253.32 191.41 251.12 190.58 248.93 191.67 246.47 193.87 245.63ZM244.78 378.87 196.9 253.58"/>
</g>
<g clip-path="url(#clip_21)">
<path transform="matrix(1,0,0,-1,-64.8957,450.2952)" d="M180.78 237.22 182.79 239.73 185.8 233.19 178.77 234.71 180.78 237.22Z" fill="#4672c4" fill-rule="evenodd"/>
</g>
<g clip-path="url(#clip_22)">
<path transform="matrix(1,0,0,-1,-64.8957,450.2952)" stroke-width="1" stroke-linecap="round" stroke-linejoin="round" fill="none" stroke="#4672c4" d="M180.78 237.22C173.52 245.31 174.19 257.76 182.29 265.02 190.38 272.28 202.83 271.6 210.09 263.51 211.2 262.26 212.16 260.88 212.92 259.4M180.78 237.22 182.79 239.73 185.8 233.19 178.77 234.71 180.78 237.22Z"/>
</g>
<g clip-path="url(#clip_23)">
<path transform="matrix(1,0,0,-1,-64.8957,450.2952)" d="M183.16 257.06 193.52 264.21 185.35 276.07 174.98 268.92 183.16 257.06Z" fill="#ffffff" fill-rule="evenodd"/>
</g>
<g clip-path="url(#clip_24)">
<path transform="matrix(1,0,0,-1,-64.8957,450.2952)" d="M185.99 263.27C185.6 263.03 185.23 262.86 184.88 262.77 184.54 262.69 184.21 262.67 183.9 262.73 183.59 262.78 183.3 262.91 183.04 263.11 182.77 263.31 182.52 263.57 182.29 263.9 182.07 264.22 181.92 264.54 181.84 264.86 181.75 265.19 181.73 265.51 181.79 265.82 181.84 266.14 181.96 266.45 182.16 266.76 182.36 267.06 182.63 267.35 182.97 267.63L181.78 269.37C181.76 269.39 181.75 269.41 181.75 269.44 181.75 269.47 181.76 269.49 181.78 269.53 181.8 269.56 181.83 269.59 181.88 269.63 181.92 269.67 181.98 269.71 182.05 269.76 182.12 269.81 182.18 269.85 182.23 269.87 182.28 269.9 182.33 269.92 182.36 269.92 182.4 269.93 182.42 269.93 182.45 269.92 182.47 269.91 182.49 269.89 182.51 269.87L183.7 268.14C184.09 268.38 184.46 268.54 184.81 268.63 185.16 268.72 185.49 268.74 185.79 268.68 186.1 268.63 186.39 268.5 186.66 268.3 186.93 268.1 187.17 267.84 187.4 267.5 187.62 267.19 187.78 266.86 187.86 266.54 187.95 266.22 187.96 265.9 187.91 265.58 187.86 265.26 187.73 264.95 187.54 264.65 187.34 264.34 187.07 264.05 186.72 263.77L187.67 262.38C187.69 262.36 187.7 262.34 187.7 262.31 187.7 262.28 187.69 262.26 187.67 262.23 187.65 262.2 187.62 262.16 187.58 262.12 187.54 262.09 187.48 262.04 187.41 261.99 187.34 261.94 187.28 261.91 187.22 261.88 187.17 261.85 187.13 261.84 187.09 261.83 187.06 261.82 187.03 261.82 187 261.83 186.98 261.84 186.96 261.86 186.94 261.88L185.99 263.27ZM186.31 264.37C186.53 264.55 186.71 264.74 186.84 264.94 186.98 265.14 187.06 265.34 187.1 265.55 187.13 265.76 187.12 265.98 187.05 266.21 186.98 266.44 186.86 266.68 186.69 266.94 186.53 267.16 186.36 267.35 186.19 267.51 186.01 267.66 185.82 267.77 185.61 267.84 185.39 267.9 185.17 267.91 184.92 267.87 184.68 267.82 184.41 267.71 184.12 267.54L186.31 264.37ZM183.4 267.04C183.17 266.85 182.98 266.66 182.85 266.46 182.72 266.26 182.64 266.06 182.6 265.85 182.57 265.63 182.59 265.41 182.65 265.18 182.72 264.95 182.84 264.72 183.01 264.47 183.17 264.24 183.34 264.05 183.51 263.89 183.69 263.74 183.88 263.63 184.09 263.57 184.3 263.51 184.52 263.5 184.77 263.54 185.02 263.58 185.29 263.69 185.59 263.87Z" fill="#3d64ac"/>
</g>
<g clip-path="url(#clip_25)">
<path transform="matrix(1,0,0,-1,-64.8957,450.2952)" d="M79.667 264.72 112.84 251.6 133.82 304.63 100.65 317.75 79.667 264.72Z" fill="#4672c4" fill-rule="evenodd"/>
</g>
<g clip-path="url(#clip_26)">
<path transform="matrix(1,0,0,-1,-64.8957,450.2952)" stroke-width=".75" stroke-linecap="square" stroke-miterlimit="10" stroke-linejoin="miter" fill="none" stroke="#d2d2d2" d="M79.667 264.72 112.84 251.6 133.82 304.63 100.65 317.75 79.667 264.72Z"/>
</g>
<g clip-path="url(#clip_27)">
<path transform="matrix(1,0,0,-1,-64.8957,450.2952)" d="M253.83 195.82 287 182.69 307.98 235.73 274.81 248.85 253.83 195.82Z" fill="#4672c4" fill-rule="evenodd"/>
</g>
<g clip-path="url(#clip_28)">
<path transform="matrix(1,0,0,-1,-64.8957,450.2952)" stroke-width=".75" stroke-linecap="square" stroke-miterlimit="10" stroke-linejoin="miter" fill="none" stroke="#d2d2d2" d="M253.83 195.82 287 182.69 307.98 235.73 274.81 248.85 253.83 195.82Z"/>
</g>
<g clip-path="url(#clip_29)">
<path transform="matrix(1,0,0,-1,-64.8957,450.2952)" d="M206.79 389.18 279.45 360.43 285.8 376.5 213.14 405.24 206.79 389.18Z" fill="#4672c4" fill-rule="evenodd"/>
</g>
<g clip-path="url(#clip_30)">
<path transform="matrix(1,0,0,-1,-64.8957,450.2952)" stroke-width=".75" stroke-linecap="square" stroke-miterlimit="10" stroke-linejoin="miter" fill="none" stroke="#d2d2d2" d="M206.79 389.18 279.45 360.43 285.8 376.5 213.14 405.24 206.79 389.18Z"/>
</g>
<g clip-path="url(#clip_31)">
<path transform="matrix(1,0,0,-1,-64.8957,450.2952)" stroke-width="1" stroke-linecap="round" stroke-linejoin="round" fill="none" stroke="#4672c4" d="M106.74 284.67 284.03 214.54"/>
</g>
<g clip-path="url(#clip_32)">
<path transform="matrix(1,0,0,-1,-64.8957,450.2952)" stroke-width="1" stroke-linecap="round" stroke-dasharray="1,2" stroke-linejoin="round" fill="none" stroke="#4672c4" d="M106.74 284.67 84.659 228.85"/>
</g>
<g clip-path="url(#clip_33)">
<path transform="matrix(1,0,0,-1,-64.8957,450.2952)" stroke-width="1" stroke-linecap="round" stroke-dasharray="1,2" stroke-linejoin="round" fill="none" stroke="#4672c4" d="M280.9 215.77 258.82 159.95"/>
</g>
<g clip-path="url(#clip_34)">
<path transform="matrix(1,0,0,-1,-64.8957,450.2952)" stroke-width="1" stroke-linecap="round" stroke-dasharray="1,2" stroke-linejoin="round" fill="none" stroke="#4672c4" d="M246.29 382.84 371.7 333.23"/>
</g>
<g clip-path="url(#clip_35)">
<path transform="matrix(1,0,0,-1,-64.8957,450.2952)" stroke-width="1" stroke-linecap="round" stroke-dasharray="1,2" stroke-linejoin="round" fill="none" stroke="#4672c4" d="M320.16 200.24 280.9 215.77"/>
</g>
<g clip-path="url(#clip_36)">
<path transform="matrix(1,0,0,-1,-64.8957,450.2952)" d="M319.45 207.78 325.76 205.33 320.16 200.24 319.45 207.78ZM366.1 328.14 372.41 325.69 371.7 333.23 366.1 328.14Z" fill="#4672c4" fill-rule="evenodd"/>
</g>
<g clip-path="url(#clip_37)">
<path transform="matrix(1,0,0,-1,-64.8957,450.2952)" stroke-width="1" stroke-linecap="round" stroke-linejoin="round" fill="none" stroke="#4672c4" d="M319.45 207.78 325.76 205.33 320.16 200.24 319.45 207.78ZM366.1 328.14 372.41 325.69 371.7 333.23 366.1 328.14ZM322.6 206.55 369.25 326.92"/>
</g>
<g clip-path="url(#clip_38)">
<path transform="matrix(1,0,0,-1,-64.8957,450.2952)" d="M350.31 258.12 354.97 270.15 341.54 275.35 336.88 263.32 350.31 258.12Z" fill="#ffffff" fill-rule="evenodd"/>
</g>
<g clip-path="url(#clip_39)">
<path transform="matrix(1,0,0,-1,-64.8957,450.2952)" d="M350.13 268.03C350.16 268.02 350.18 268.01 350.2 267.98 350.21 267.96 350.22 267.93 350.22 267.89 350.22 267.84 350.21 267.79 350.2 267.73 350.18 267.67 350.16 267.59 350.12 267.5 350.09 267.41 350.05 267.33 350.02 267.28 349.99 267.22 349.96 267.18 349.93 267.15 349.91 267.12 349.88 267.1 349.85 267.09 349.82 267.09 349.8 267.09 349.77 267.1L346.63 268.32 345.38 265.1 348.52 263.88C348.55 263.87 348.57 263.85 348.59 263.83 348.6 263.81 348.61 263.78 348.61 263.73 348.61 263.69 348.6 263.64 348.59 263.58 348.57 263.51 348.55 263.44 348.51 263.34 348.48 263.26 348.44 263.18 348.41 263.13 348.38 263.07 348.35 263.02 348.32 262.99 348.29 262.96 348.27 262.94 348.24 262.93 348.21 262.93 348.18 262.93 348.15 262.94L341.37 265.57C341.34 265.58 341.32 265.6 341.3 265.62 341.28 265.65 341.28 265.68 341.28 265.72 341.28 265.76 341.29 265.82 341.3 265.88 341.32 265.95 341.34 266.02 341.38 266.11 341.41 266.2 341.45 266.27 341.48 266.33 341.51 266.39 341.54 266.43 341.57 266.46 341.59 266.49 341.62 266.51 341.65 266.52 341.68 266.53 341.7 266.52 341.73 266.51L344.56 265.42 345.81 268.63 342.98 269.73C342.95 269.74 342.93 269.76 342.91 269.78 342.9 269.8 342.89 269.84 342.89 269.88 342.89 269.92 342.9 269.97 342.91 270.03 342.93 270.09 342.95 270.17 342.99 270.27 343.02 270.35 343.05 270.43 343.09 270.48 343.12 270.54 343.15 270.58 343.18 270.62 343.2 270.65 343.23 270.67 343.26 270.67 343.29 270.68 343.31 270.68 343.34 270.66Z" fill="#3d64ac"/>
</g>
<g clip-path="url(#clip_40)">
<path transform="matrix(1,0,0,-1,-64.8957,450.2952)" d="M92.196 229.51 89.707 223.21 84.659 228.85 92.196 229.51ZM253.77 165.58 251.28 159.29 258.82 159.95 253.77 165.58Z" fill="#4672c4" fill-rule="evenodd"/>
</g>
<g clip-path="url(#clip_41)">
<path transform="matrix(1,0,0,-1,-64.8957,450.2952)" stroke-width="1" stroke-linecap="round" stroke-linejoin="round" fill="none" stroke="#4672c4" d="M92.196 229.51 89.707 223.21 84.659 228.85 92.196 229.51ZM253.77 165.58 251.28 159.29 258.82 159.95 253.77 165.58ZM90.952 226.36 252.53 162.44"/>
</g>
<g clip-path="url(#clip_42)">
<path transform="matrix(1,0,0,-1,-64.8957,450.2952)" d="M163.14 190.06 175.05 185.35 180.34 198.74 168.43 203.45 163.14 190.06Z" fill="#ffffff" fill-rule="evenodd"/>
</g>
<g clip-path="url(#clip_43)">
<path transform="matrix(1,0,0,-1,-64.8957,450.2952)" d="M174.78 193.52C174.53 192.91 174.25 192.41 173.91 192.01 173.57 191.62 173.2 191.33 172.78 191.15 172.36 190.97 171.9 190.89 171.41 190.92 170.91 190.94 170.36 191.07 169.76 191.31L168.27 191.9C168.18 191.93 168.12 191.99 168.06 192.08 168.01 192.16 168.01 192.28 168.07 192.42L170.56 198.71C170.61 198.85 170.69 198.93 170.79 198.96 170.88 198.99 170.97 198.98 171.06 198.95L172.65 198.32C173.26 198.08 173.75 197.79 174.11 197.47 174.47 197.14 174.73 196.78 174.9 196.37 175.07 195.96 175.14 195.52 175.12 195.04 175.1 194.56 174.99 194.05 174.78 193.52ZM173.77 193.87C173.93 194.25 174.02 194.63 174.05 194.99 174.09 195.36 174.05 195.7 173.95 196.02 173.84 196.34 173.66 196.63 173.4 196.89 173.15 197.14 172.78 197.37 172.29 197.56L171.34 197.94 169.17 192.45 170.13 192.07C170.58 191.89 170.98 191.8 171.34 191.79 171.69 191.78 172.02 191.85 172.32 192 172.61 192.15 172.88 192.38 173.13 192.69 173.37 193 173.59 193.39 173.77 193.87Z" fill="#3d64ac"/>
</g>
<g clip-path="url(#clip_44)">
<path transform="matrix(1,0,0,-1,-64.8957,450.2952)" d="M247.81 386.81C245.62 387.65 243.16 386.55 242.32 384.36 241.48 382.16 242.58 379.7 244.78 378.87 246.97 378.03 249.43 379.13 250.27 381.32 251.1 383.51 250.01 385.97 247.81 386.81ZM193.87 245.63C196.06 244.79 198.52 245.89 199.36 248.09 200.2 250.28 199.1 252.74 196.9 253.58 194.71 254.42 192.25 253.32 191.41 251.12 190.58 248.93 191.67 246.47 193.87 245.63Z" fill="#4672c4" fill-rule="evenodd"/>
</g>
<g clip-path="url(#clip_45)">
<path transform="matrix(1,0,0,-1,-64.8957,450.2952)" stroke-width="1" stroke-linecap="round" stroke-linejoin="round" fill="none" stroke="#4672c4" d="M247.81 386.81C245.62 387.65 243.16 386.55 242.32 384.36 241.48 382.16 242.58 379.7 244.78 378.87 246.97 378.03 249.43 379.13 250.27 381.32 251.1 383.51 250.01 385.97 247.81 386.81ZM193.87 245.63C196.06 244.79 198.52 245.89 199.36 248.09 200.2 250.28 199.1 252.74 196.9 253.58 194.71 254.42 192.25 253.32 191.41 251.12 190.58 248.93 191.67 246.47 193.87 245.63ZM244.78 378.87 196.9 253.58"/>
</g>
<g clip-path="url(#clip_46)">
<path transform="matrix(1,0,0,-1,-64.8957,450.2952)" d="M180.78 237.22 182.79 239.73 185.8 233.19 178.77 234.71 180.78 237.22Z" fill="#4672c4" fill-rule="evenodd"/>
</g>
<g clip-path="url(#clip_47)">
<path transform="matrix(1,0,0,-1,-64.8957,450.2952)" stroke-width="1" stroke-linecap="round" stroke-linejoin="round" fill="none" stroke="#4672c4" d="M180.78 237.22C173.52 245.31 174.19 257.76 182.29 265.02 190.38 272.28 202.83 271.6 210.09 263.51 211.2 262.26 212.16 260.88 212.92 259.4M180.78 237.22 182.79 239.73 185.8 233.19 178.77 234.71 180.78 237.22Z"/>
</g>
<g clip-path="url(#clip_48)">
<path transform="matrix(1,0,0,-1,-64.8957,450.2952)" d="M183.16 257.06 193.52 264.21 185.35 276.07 174.98 268.92 183.16 257.06Z" fill="#ffffff" fill-rule="evenodd"/>
</g>
<g clip-path="url(#clip_49)">
<path transform="matrix(1,0,0,-1,-64.8957,450.2952)" d="M185.99 263.27C185.6 263.03 185.23 262.86 184.88 262.77 184.54 262.69 184.21 262.67 183.9 262.73 183.59 262.78 183.3 262.91 183.04 263.11 182.77 263.31 182.52 263.57 182.29 263.9 182.07 264.22 181.92 264.54 181.84 264.86 181.75 265.19 181.73 265.51 181.79 265.82 181.84 266.14 181.96 266.45 182.16 266.76 182.36 267.06 182.63 267.35 182.97 267.63L181.78 269.37C181.76 269.39 181.75 269.41 181.75 269.44 181.75 269.47 181.76 269.49 181.78 269.53 181.8 269.56 181.83 269.59 181.88 269.63 181.92 269.67 181.98 269.71 182.05 269.76 182.12 269.81 182.18 269.85 182.23 269.87 182.28 269.9 182.33 269.92 182.36 269.92 182.4 269.93 182.42 269.93 182.45 269.92 182.47 269.91 182.49 269.89 182.51 269.87L183.7 268.14C184.09 268.38 184.46 268.54 184.81 268.63 185.16 268.72 185.49 268.74 185.79 268.68 186.1 268.63 186.39 268.5 186.66 268.3 186.93 268.1 187.17 267.84 187.4 267.5 187.62 267.19 187.78 266.86 187.86 266.54 187.95 266.22 187.96 265.9 187.91 265.58 187.86 265.26 187.73 264.95 187.54 264.65 187.34 264.34 187.07 264.05 186.72 263.77L187.67 262.38C187.69 262.36 187.7 262.34 187.7 262.31 187.7 262.28 187.69 262.26 187.67 262.23 187.65 262.2 187.62 262.16 187.58 262.12 187.54 262.09 187.48 262.04 187.41 261.99 187.34 261.94 187.28 261.91 187.22 261.88 187.17 261.85 187.13 261.84 187.09 261.83 187.06 261.82 187.03 261.82 187 261.83 186.98 261.84 186.96 261.86 186.94 261.88L185.99 263.27ZM186.31 264.37C186.53 264.55 186.71 264.74 186.84 264.94 186.98 265.14 187.06 265.34 187.1 265.55 187.13 265.76 187.12 265.98 187.05 266.21 186.98 266.44 186.86 266.68 186.69 266.94 186.53 267.16 186.36 267.35 186.19 267.51 186.01 267.66 185.82 267.77 185.61 267.84 185.39 267.9 185.17 267.91 184.92 267.87 184.68 267.82 184.41 267.71 184.12 267.54L186.31 264.37ZM183.4 267.04C183.17 266.85 182.98 266.66 182.85 266.46 182.72 266.26 182.64 266.06 182.6 265.85 182.57 265.63 182.59 265.41 182.65 265.18 182.72 264.95 182.84 264.72 183.01 264.47 183.17 264.24 183.34 264.05 183.51 263.89 183.69 263.74 183.88 263.63 184.09 263.57 184.3 263.51 184.52 263.5 184.77 263.54 185.02 263.58 185.29 263.69 185.59 263.87Z" fill="#3d64ac"/>
</g>
<g clip-path="url(#clip_50)">
<path transform="matrix(1,0,0,-1,-64.8957,450.2952)" stroke-width="1" stroke-linecap="round" stroke-dasharray="15,9" stroke-linejoin="round" fill="none" stroke="#4672c4" d="M194.47 433.33V148.48"/>
</g>
<g clip-path="url(#clip_51)">
<path transform="matrix(1,0,0,-1,-64.8957,450.2952)" stroke-width="1" stroke-linecap="round" stroke-linejoin="round" fill="none" stroke="#000000" d="M288.92 380.04 323.52 391.45"/>
</g>
<g clip-path="url(#clip_52)">
<text xml:space="preserve" transform="matrix(1 0 -0 1 -64.8957 450.2952)" font-size="12.025" font-family="Calibri"><tspan y="-386.98" x="330.63 333.6122 335.86088 342.59486 348.5833 350.84403 356.08695 362.0754 368.0879 372.58525 379.31925">line sensor</tspan></text>
</g>
<g clip-path="url(#clip_53)">
<path transform="matrix(1,0,0,-1,-64.8957,450.2952)" stroke-width="1" stroke-linecap="round" stroke-linejoin="round" fill="none" stroke="#000000" d="M251.42 191.15 195.23 136.32"/>
</g>
<g clip-path="url(#clip_54)">
<text xml:space="preserve" transform="matrix(1 0 -0 1 -64.8957 450.2952)" font-size="12.025" font-family="Calibri"><tspan y="-121.1" x="178.3 186.54915 193.28314 199.27159 205.26004 207.53276">wheels</tspan></text>
</g>
<g clip-path="url(#clip_55)">
<path transform="matrix(1,0,0,-1,-64.8957,450.2952)" stroke-width="1" stroke-linecap="round" stroke-linejoin="round" fill="none" stroke="#000000" d="M113.67 245.02 195.23 136.32"/>
</g>
<g clip-path="url(#clip_56)">
<path transform="matrix(1,0,0,-1,-64.8957,450.2952)" stroke-width="1" stroke-linecap="round" stroke-linejoin="round" fill="none" stroke="#000000" d="M203.68 252.52 239.83 263.5"/>
</g>
<g clip-path="url(#clip_57)">
<text xml:space="preserve" transform="matrix(1 0 -0 1 -64.8957 450.2952)" font-size="12.025" font-family="Calibri"><tspan y="-258.88" x="246.35 250.1018 256.8358 260.5876 267.32157 269.57023 276.3042 281.55915 284.54136 290.5418 297.27583 299.52449 306.25846">turning point</tspan></text>
</g>
</g>
</svg>
