<svg xmlns="http://www.w3.org/2000/svg" xmlns:xlink="http://www.w3.org/1999/xlink" version="1.1" width="345.3259pt" height="143.91681pt" viewBox="0 0 345.3259 143.91681">
<defs>
<clipPath id="clip_0">
<path transform="matrix(1,0,0,-1,-236.2537,516.1975)" d="M.000012539 0H841.5V594.75H.000012539Z" fill-rule="evenodd"/>
</clipPath>
<clipPath id="clip_1">
<path transform="matrix(1,0,0,-1,-236.2537,516.1975)" d="M.000030518 594.75H841.5V.00018311H.000030518" fill-rule="evenodd"/>
</clipPath>
<clipPath id="clip_2">
<path transform="matrix(1,0,0,-1,-236.2537,516.1975)" d="M.000061035 594.75H841.5V.00018311H.000061035" fill-rule="evenodd"/>
</clipPath>
<clipPath id="clip_3">
<path transform="matrix(1,0,0,-1,-236.2537,516.1975)" d="M.000091553 594.75H841.5V.00018311H.000091553" fill-rule="evenodd"/>
</clipPath>
<clipPath id="clip_4">
<path transform="matrix(1,0,0,-1,-236.2537,516.1975)" d="M.000012539 0H841.5V594.75H.000012539Z" fill-rule="evenodd"/>
</clipPath>
<clipPath id="clip_5">
<path transform="matrix(1,0,0,-1,-236.2537,516.1975)" d="M.000012539 0H841.5V594.75H.000012539Z" fill-rule="evenodd"/>
</clipPath>
<clipPath id="clip_6">
<path transform="matrix(1,0,0,-1,-236.2537,516.1975)" d="M.000012539 0H841.5V594.75H.000012539Z" fill-rule="evenodd"/>
</clipPath>
<clipPath id="clip_7">
<path transform="matrix(1,0,0,-1,-236.2537,516.1975)" d="M.000012539 0H841.5V594.75H.000012539Z" fill-rule="evenodd"/>
</clipPath>
<clipPath id="clip_8">
<path transform="matrix(1,0,0,-1,-236.2537,516.1975)" d="M.000012539 0H841.5V594.75H.000012539Z" fill-rule="evenodd"/>
</clipPath>
<clipPath id="clip_9">
<path transform="matrix(1,0,0,-1,-236.2537,516.1975)" d="M.000012539 0H841.5V594.75H.000012539Z" fill-rule="evenodd"/>
</clipPath>
<clipPath id="clip_10">
<path transform="matrix(1,0,0,-1,-236.2537,516.1975)" d="M.000012539 0H841.5V594.75H.000012539Z" fill-rule="evenodd"/>
</clipPath>
<clipPath id="clip_11">
<path transform="matrix(1,0,0,-1,-236.2537,516.1975)" d="M.000012539 0H841.5V594.75H.000012539Z" fill-rule="evenodd"/>
</clipPath>
<clipPath id="clip_12">
<path transform="matrix(1,0,0,-1,-236.2537,516.1975)" d="M0 594.75H841.5V.00024414L-.000030518 .00018311" fill-rule="evenodd"/>
</clipPath>
<clipPath id="clip_13">
<path transform="matrix(1,0,0,-1,-236.2537,516.1975)" d="M0 594.75H841.5V.00024414L-.000030518 .00018311" fill-rule="evenodd"/>
</clipPath>
<clipPath id="clip_14">
<path transform="matrix(1,0,0,-1,-236.2537,516.1975)" d="M0 594.75H841.5V.00024414L-.000030518 .00018311" fill-rule="evenodd"/>
</clipPath>
<clipPath id="clip_15">
<path transform="matrix(1,0,0,-1,-236.2537,516.1975)" d="M0 594.75H841.5V.00012207H0" fill-rule="evenodd"/>
</clipPath>
<clipPath id="clip_16">
<path transform="matrix(1,0,0,-1,-236.2537,516.1975)" d="M-.000030518 594.75H841.5V.00012207H-.000030518" fill-rule="evenodd"/>
</clipPath>
<clipPath id="clip_17">
<path transform="matrix(1,0,0,-1,-236.2537,516.1975)" d="M-.000061035 594.75H841.5V.00018311L-.000061035 .00012207" fill-rule="evenodd"/>
</clipPath>
<clipPath id="clip_18">
<path transform="matrix(1,0,0,-1,-236.2537,516.1975)" d="M-.000061035 594.75H841.5V.00018311L-.000061035 .00012207" fill-rule="evenodd"/>
</clipPath>
<clipPath id="clip_19">
<path transform="matrix(1,0,0,-1,-236.2537,516.1975)" d="M-.000061035 594.75H841.5V.00018311L-.000061035 .00012207" fill-rule="evenodd"/>
</clipPath>
<clipPath id="clip_20">
<path transform="matrix(1,0,0,-1,-236.2537,516.1975)" d="M-.000030518 594.75H841.5V.000061035H-.000030518" fill-rule="evenodd"/>
</clipPath>
</defs>
<g>
<path transform="matrix(1,0,0,-1,-236.2537,516.1975)" d="M242.45 417.36H269.133V444.951H242.45Z" fill="#4672c4" fill-rule="evenodd"/>
<path transform="matrix(1,0,0,-1,-236.2537,516.1975)" stroke-width=".75" stroke-linecap="square" stroke-miterlimit="10" stroke-linejoin="miter" fill="none" stroke="#d2d2d2" d="M242.45 417.36H269.133V444.951H242.45Z"/>
<path transform="matrix(1,0,0,-1,-236.2537,516.1975)" d="M286.29 417.36H312.97303V444.951H286.29Z" fill="#4672c4" fill-rule="evenodd"/>
<path transform="matrix(1,0,0,-1,-236.2537,516.1975)" stroke-width=".75" stroke-linecap="square" stroke-miterlimit="10" stroke-linejoin="miter" fill="none" stroke="#d2d2d2" d="M286.29 417.36H312.97303V444.951H286.29Z"/>
<path transform="matrix(1,0,0,-1,-236.2537,516.1975)" d="M330.13 417.36H356.81303V444.951H330.13Z" fill="#4672c4" fill-rule="evenodd"/>
<path transform="matrix(1,0,0,-1,-236.2537,516.1975)" stroke-width=".75" stroke-linecap="square" stroke-miterlimit="10" stroke-linejoin="miter" fill="none" stroke="#d2d2d2" d="M330.13 417.36H356.81303V444.951H330.13Z"/>
<path transform="matrix(1,0,0,-1,-236.2537,516.1975)" d="M373.96 417.36H400.643V444.951H373.96Z" fill="#4672c4" fill-rule="evenodd"/>
<path transform="matrix(1,0,0,-1,-236.2537,516.1975)" stroke-width=".75" stroke-linecap="square" stroke-miterlimit="10" stroke-linejoin="miter" fill="none" stroke="#d2d2d2" d="M373.96 417.36H400.643V444.951H373.96Z"/>
<path transform="matrix(1,0,0,-1,-236.2537,516.1975)" d="M417.79 417.36H444.47303V444.951H417.79Z" fill="#4672c4" fill-rule="evenodd"/>
<path transform="matrix(1,0,0,-1,-236.2537,516.1975)" stroke-width=".75" stroke-linecap="square" stroke-miterlimit="10" stroke-linejoin="miter" fill="none" stroke="#d2d2d2" d="M417.79 417.36H444.47303V444.951H417.79Z"/>
<path transform="matrix(1,0,0,-1,-236.2537,516.1975)" d="M461.63 417.35H488.31303V444.941H461.63Z" fill="#4672c4" fill-rule="evenodd"/>
<path transform="matrix(1,0,0,-1,-236.2537,516.1975)" stroke-width=".75" stroke-linecap="square" stroke-miterlimit="10" stroke-linejoin="miter" fill="none" stroke="#d2d2d2" d="M461.63 417.35H488.31303V444.941H461.63Z"/>
<path transform="matrix(1,0,0,-1,-236.2537,516.1975)" d="M505.47 417.34H532.153V444.931H505.47Z" fill="#4672c4" fill-rule="evenodd"/>
<path transform="matrix(1,0,0,-1,-236.2537,516.1975)" stroke-width=".75" stroke-linecap="square" stroke-miterlimit="10" stroke-linejoin="miter" fill="none" stroke="#d2d2d2" d="M505.47 417.34H532.153V444.931H505.47Z"/>
<path transform="matrix(1,0,0,-1,-236.2537,516.1975)" d="M549.3 417.35H575.983V444.941H549.3Z" fill="#4672c4" fill-rule="evenodd"/>
<path transform="matrix(1,0,0,-1,-236.2537,516.1975)" stroke-width=".75" stroke-linecap="square" stroke-miterlimit="10" stroke-linejoin="miter" fill="none" stroke="#d2d2d2" d="M549.3 417.35H575.983V444.941H549.3Z"/>
<path transform="matrix(1,0,0,-1,-236.2537,516.1975)" d="M263.49 411.11V405.44L257.82 408.28 263.49 411.11ZM291.88 411.11V405.44L297.54 408.28 291.88 411.11Z" fill="#4672c4" fill-rule="evenodd"/>
<path transform="matrix(1,0,0,-1,-236.2537,516.1975)" stroke-width="1" stroke-linecap="round" stroke-linejoin="round" fill="none" stroke="#4672c4" d="M263.49 411.11V405.44L257.82 408.28 263.49 411.11ZM291.88 411.11V405.44L297.54 408.28 291.88 411.11ZM263.49 408.28H291.88"/>
<path transform="matrix(1,0,0,-1,-236.2537,516.1975)" d="M266.03 402.28H289.336V414.28H266.03Z" fill="#ffffff" fill-rule="evenodd"/>
<g clip-path="url(#clip_0)">
<text fill="#3d64ac" xml:space="preserve" transform="matrix(1 0 -0 1 -236.2537 516.1975)" font-size="9.75" font-family="Calibri"><tspan y="-405.03" x="266.27 271.50575 273.74824 281.24598">8 mm</tspan></text>
</g>
<g clip-path="url(#clip_1)">
<path transform="matrix(1,0,0,-1,-236.2537,516.1975)" stroke-width="1" stroke-linecap="round" stroke-dasharray="1,2" stroke-linejoin="round" fill="none" stroke="#4672c4" d="M299.75 454.56V409.35"/>
</g>
<g clip-path="url(#clip_2)">
<path transform="matrix(1,0,0,-1,-236.2537,516.1975)" stroke-width="1" stroke-linecap="round" stroke-dasharray="1,2" stroke-linejoin="round" fill="none" stroke="#4672c4" d="M256.32 453.86V408.65"/>
</g>
<g clip-path="url(#clip_3)">
<path transform="matrix(1,0,0,-1,-236.2537,516.1975)" stroke-width="1" stroke-linecap="round" stroke-dasharray="1,2" stroke-linejoin="round" fill="none" stroke="#4672c4" d="M408.97 508.64V388.4"/>
</g>
<g clip-path="url(#clip_4)">
<text fill="#0070c0" xml:space="preserve" transform="matrix(1 0 -0 1 -236.2537 516.1975)" font-size="12" font-family="Calibri"><tspan y="-462.08" x="252.98">0</tspan></text>
</g>
<g clip-path="url(#clip_5)">
<text fill="#0070c0" xml:space="preserve" transform="matrix(1 0 -0 1 -236.2537 516.1975)" font-size="12" font-family="Calibri"><tspan y="-462.08" x="296.85">1</tspan></text>
</g>
<g clip-path="url(#clip_6)">
<text fill="#0070c0" xml:space="preserve" transform="matrix(1 0 -0 1 -236.2537 516.1975)" font-size="12" font-family="Calibri"><tspan y="-462.08" x="340.73">2</tspan></text>
</g>
<g clip-path="url(#clip_7)">
<text fill="#0070c0" xml:space="preserve" transform="matrix(1 0 -0 1 -236.2537 516.1975)" font-size="12" font-family="Calibri"><tspan y="-462.08" x="384.6">3</tspan></text>
</g>
<g clip-path="url(#clip_8)">
<text fill="#0070c0" xml:space="preserve" transform="matrix(1 0 -0 1 -236.2537 516.1975)" font-size="12" font-family="Calibri"><tspan y="-462.08" x="428.48">4</tspan></text>
</g>
<g clip-path="url(#clip_9)">
<text fill="#0070c0" xml:space="preserve" transform="matrix(1 0 -0 1 -236.2537 516.1975)" font-size="12" font-family="Calibri"><tspan y="-462.08" x="472.35">5</tspan></text>
</g>
<g clip-path="url(#clip_10)">
<text fill="#0070c0" xml:space="preserve" transform="matrix(1 0 -0 1 -236.2537 516.1975)" font-size="12" font-family="Calibri"><tspan y="-462.08" x="516.22">6</tspan></text>
</g>
<g clip-path="url(#clip_11)">
<text fill="#0070c0" xml:space="preserve" transform="matrix(1 0 -0 1 -236.2537 516.1975)" font-size="12" font-family="Calibri"><tspan y="-462.08" x="560.1">7</tspan></text>
</g>
<g clip-path="url(#clip_12)">
<path transform="matrix(1,0,0,-1,-236.2537,516.1975)" d="M536 391.45 535.99 385.06 542.39 388.24 536 391.45Z" fill="#4672c4" fill-rule="evenodd"/>
</g>
<g clip-path="url(#clip_13)">
<path transform="matrix(1,0,0,-1,-236.2537,516.1975)" stroke-width="1" stroke-linecap="round" stroke-linejoin="round" fill="none" stroke="#4672c4" d="M536 391.45 535.99 385.06 542.39 388.24 536 391.45ZM408.97 388.4 536 388.25"/>
</g>
<g clip-path="url(#clip_14)">
<path transform="matrix(1,0,0,-1,-236.2537,516.1975)" d="M430.84 381.17 520.5 381.07 520.52 395.47 430.86 395.57 430.84 381.17Z" fill="#ffffff" fill-rule="evenodd"/>
</g>
<g clip-path="url(#clip_15)">
<path transform="matrix(1,0,0,-1,-236.2537,516.1975)" d="M437.2 385.3C437.2 385.18 437.19 385.09 437.18 385.03 437.16 384.96 437.14 384.91 437.11 384.88 437.08 384.85 437.03 384.82 436.97 384.79 436.9 384.77 436.83 384.74 436.75 384.73 436.67 384.71 436.59 384.69 436.5 384.68 436.41 384.67 436.32 384.67 436.23 384.67 435.95 384.67 435.72 384.7 435.52 384.78 435.33 384.85 435.17 384.96 435.04 385.1 434.92 385.25 434.83 385.44 434.77 385.66 434.72 385.89 434.69 386.15 434.69 386.45V389.54H433.95C433.89 389.54 433.85 389.57 433.81 389.63 433.78 389.69 433.76 389.8 433.76 389.94 433.76 390.01 433.77 390.07 433.78 390.12 433.79 390.17 433.8 390.22 433.81 390.25 433.83 390.28 433.85 390.31 433.88 390.32 433.9 390.33 433.93 390.34 433.96 390.34H434.69V391.59C434.69 391.62 434.7 391.65 434.71 391.67 434.73 391.69 434.75 391.71 434.79 391.73 434.83 391.75 434.88 391.76 434.94 391.77 435 391.78 435.08 391.78 435.17 391.78 435.27 391.78 435.35 391.78 435.42 391.77 435.48 391.76 435.53 391.75 435.56 391.73 435.6 391.71 435.62 391.69 435.64 391.67 435.65 391.65 435.66 391.62 435.66 391.59V390.34H437.01C437.04 390.34 437.07 390.33 437.1 390.32 437.12 390.3 437.14 390.28 437.16 390.25 437.17 390.21 437.19 390.17 437.19 390.12 437.2 390.07 437.21 390.01 437.21 389.93 437.21 389.79 437.19 389.69 437.15 389.63 437.12 389.57 437.07 389.53 437.01 389.53L435.66 389.54V386.59C435.65 386.23 435.71 385.96 435.82 385.77 435.92 385.59 436.11 385.49 436.39 385.49 436.48 385.49 436.56 385.5 436.63 385.52 436.7 385.54 436.77 385.55 436.82 385.57 436.87 385.59 436.92 385.61 436.96 385.63 437 385.65 437.03 385.66 437.07 385.66 437.09 385.66 437.1 385.65 437.12 385.64 437.14 385.63 437.15 385.61 437.16 385.58 437.17 385.56 437.18 385.52 437.19 385.47 437.2 385.43 437.2 385.37 437.2 385.3ZM441.3 389.83C441.3 389.75 441.29 389.68 441.29 389.62 441.29 389.56 441.28 389.51 441.27 389.48 441.25 389.45 441.24 389.42 441.22 389.4 441.2 389.39 441.18 389.38 441.15 389.38 441.12 389.38 441.08 389.39 441.03 389.4 440.99 389.42 440.94 389.44 440.88 389.46 440.83 389.47 440.76 389.49 440.69 389.51 440.62 389.52 440.55 389.53 440.46 389.53 440.37 389.53 440.27 389.51 440.18 389.47 440.08 389.43 439.98 389.37 439.88 389.28 439.78 389.19 439.67 389.07 439.55 388.92 439.44 388.77 439.32 388.59 439.18 388.38L439.17 384.91C439.17 384.88 439.17 384.85 439.15 384.83 439.14 384.81 439.11 384.79 439.07 384.77 439.04 384.76 438.99 384.75 438.93 384.74 438.87 384.73 438.79 384.73 438.69 384.73 438.59 384.73 438.52 384.73 438.45 384.74 438.39 384.75 438.34 384.76 438.3 384.77 438.27 384.79 438.24 384.81 438.23 384.83 438.21 384.85 438.21 384.88 438.21 384.91V390.18C438.21 390.21 438.22 390.24 438.23 390.26 438.24 390.28 438.27 390.3 438.3 390.32 438.34 390.34 438.38 390.35 438.44 390.36 438.49 390.36 438.56 390.36 438.65 390.36 438.74 390.36 438.81 390.36 438.87 390.36 438.92 390.35 438.97 390.34 439 390.32 439.03 390.3 439.05 390.28 439.07 390.26 439.08 390.24 439.09 390.21 439.09 390.18V389.41C439.23 389.63 439.37 389.8 439.49 389.93 439.62 390.06 439.74 390.17 439.85 390.24 439.97 390.32 440.08 390.37 440.19 390.4 440.3 390.43 440.42 390.44 440.53 390.44 440.58 390.44 440.64 390.44 440.7 390.44 440.77 390.43 440.83 390.42 440.9 390.4 440.97 390.39 441.04 390.37 441.09 390.35 441.15 390.33 441.19 390.31 441.21 390.29 441.24 390.27 441.25 390.25 441.26 390.24 441.27 390.22 441.28 390.2 441.28 390.17 441.29 390.14 441.29 390.1 441.29 390.05 441.29 390 441.3 389.92 441.3 389.83ZM446.68 384.89C446.68 384.85 446.66 384.81 446.63 384.79 446.6 384.77 446.56 384.75 446.5 384.74 446.45 384.72 446.37 384.72 446.26 384.72 446.16 384.72 446.08 384.73 446.02 384.74 445.96 384.75 445.92 384.77 445.89 384.79 445.86 384.81 445.85 384.85 445.85 384.9V385.42C445.62 385.18 445.36 384.99 445.08 384.85 444.79 384.71 444.49 384.64 444.18 384.65 443.9 384.65 443.65 384.68 443.43 384.75 443.2 384.83 443.01 384.93 442.85 385.07 442.69 385.21 442.57 385.37 442.48 385.57 442.4 385.77 442.35 386 442.35 386.25 442.35 386.55 442.41 386.81 442.53 387.03 442.66 387.24 442.83 387.43 443.06 387.57 443.28 387.71 443.56 387.82 443.89 387.89 444.22 387.97 444.59 388 445 388H445.72V388.41C445.72 388.61 445.7 388.79 445.66 388.95 445.62 389.11 445.55 389.24 445.45 389.34 445.36 389.44 445.23 389.52 445.08 389.57 444.93 389.63 444.74 389.65 444.52 389.65 444.28 389.65 444.07 389.63 443.88 389.57 443.69 389.51 443.52 389.45 443.38 389.38 443.24 389.32 443.12 389.25 443.02 389.2 442.92 389.14 442.85 389.11 442.81 389.11 442.78 389.11 442.75 389.12 442.72 389.14 442.7 389.15 442.68 389.17 442.66 389.21 442.65 389.24 442.63 389.28 442.63 389.33 442.62 389.37 442.61 389.43 442.61 389.49 442.61 389.58 442.62 389.66 442.63 389.72 442.65 389.77 442.68 389.83 442.73 389.88 442.79 389.93 442.88 389.99 443.01 390.06 443.14 390.13 443.28 390.19 443.45 390.24 443.62 390.3 443.8 390.35 444 390.38 444.2 390.42 444.4 390.44 444.61 390.44 444.99 390.44 445.31 390.4 445.57 390.31 445.84 390.22 446.05 390.1 446.22 389.93 446.38 389.76 446.5 389.56 446.57 389.31 446.65 389.07 446.69 388.78 446.68 388.45ZM445.72 387.3H444.9C444.63 387.3 444.4 387.28 444.2 387.24 444.01 387.19 443.85 387.13 443.72 387.04 443.59 386.95 443.49 386.85 443.43 386.72 443.37 386.6 443.34 386.46 443.34 386.3 443.34 386.03 443.43 385.81 443.6 385.64 443.78 385.48 444.02 385.4 444.33 385.4 444.59 385.4 444.82 385.46 445.04 385.59 445.25 385.72 445.48 385.92 445.72 386.18ZM452.5 385.7C452.5 385.63 452.5 385.57 452.49 385.52 452.49 385.47 452.48 385.43 452.47 385.4 452.46 385.37 452.45 385.34 452.44 385.31 452.42 385.29 452.39 385.25 452.34 385.2 452.3 385.15 452.21 385.09 452.09 385.02 451.98 384.95 451.85 384.88 451.7 384.83 451.55 384.77 451.39 384.72 451.22 384.69 451.05 384.65 450.87 384.64 450.69 384.64 450.31 384.64 449.97 384.7 449.68 384.83 449.39 384.95 449.14 385.13 448.95 385.38 448.75 385.62 448.6 385.91 448.5 386.26 448.39 386.61 448.34 387.01 448.34 387.47 448.34 387.99 448.41 388.44 448.53 388.81 448.66 389.18 448.84 389.49 449.06 389.73 449.28 389.96 449.54 390.14 449.84 390.25 450.14 390.37 450.46 390.43 450.81 390.43 450.97 390.43 451.14 390.41 451.3 390.38 451.45 390.35 451.6 390.31 451.73 390.26 451.86 390.2 451.98 390.15 452.09 390.08 452.19 390.01 452.26 389.96 452.31 389.91 452.36 389.86 452.39 389.83 452.41 389.8 452.43 389.77 452.44 389.74 452.45 389.7 452.46 389.66 452.47 389.62 452.48 389.58 452.48 389.53 452.48 389.47 452.48 389.4 452.48 389.25 452.46 389.14 452.43 389.08 452.39 389.02 452.35 388.99 452.3 388.99 452.24 388.99 452.17 389.02 452.1 389.09 452.02 389.15 451.92 389.22 451.81 389.3 451.69 389.38 451.55 389.45 451.38 389.51 451.22 389.58 451.02 389.61 450.79 389.61 450.33 389.61 449.97 389.43 449.72 389.08 449.47 388.72 449.35 388.2 449.35 387.52 449.35 387.18 449.38 386.88 449.45 386.63 449.51 386.37 449.6 386.16 449.73 385.99 449.85 385.81 450.01 385.69 450.19 385.6 450.37 385.52 450.58 385.48 450.81 385.48 451.03 385.48 451.23 385.51 451.4 385.58 451.57 385.65 451.71 385.73 451.83 385.81 451.96 385.9 452.06 385.97 452.15 386.04 452.23 386.11 452.3 386.14 452.34 386.14 452.37 386.14 452.39 386.13 452.41 386.12 452.43 386.1 452.45 386.08 452.46 386.04 452.48 386 452.49 385.96 452.49 385.9 452.5 385.84 452.5 385.77 452.5 385.7ZM457.54 384.89C457.54 384.86 457.53 384.83 457.51 384.81 457.5 384.79 457.47 384.77 457.44 384.75 457.4 384.74 457.35 384.73 457.28 384.72 457.21 384.71 457.13 384.71 457.03 384.71 456.92 384.71 456.84 384.71 456.77 384.72 456.7 384.72 456.64 384.73 456.59 384.75 456.55 384.76 456.51 384.78 456.48 384.8 456.45 384.83 456.42 384.86 456.4 384.89L454.18 387.82 454.17 384.89C454.17 384.86 454.17 384.83 454.15 384.81 454.14 384.79 454.11 384.77 454.07 384.76 454.04 384.74 453.99 384.73 453.93 384.72 453.87 384.71 453.79 384.71 453.69 384.71 453.59 384.71 453.52 384.71 453.45 384.72 453.39 384.73 453.34 384.74 453.3 384.76 453.27 384.77 453.24 384.79 453.23 384.81 453.21 384.84 453.21 384.86 453.21 384.89L453.22 392.72C453.22 392.75 453.22 392.78 453.24 392.8 453.25 392.83 453.28 392.85 453.31 392.86 453.35 392.88 453.4 392.89 453.46 392.9 453.53 392.9 453.6 392.91 453.7 392.91 453.8 392.91 453.88 392.9 453.94 392.9 454 392.89 454.05 392.88 454.08 392.86 454.12 392.84 454.14 392.83 454.16 392.8 454.18 392.78 454.18 392.75 454.18 392.72V387.95L456.17 390.14C456.2 390.18 456.24 390.21 456.27 390.24 456.31 390.26 456.35 390.28 456.4 390.3 456.45 390.32 456.51 390.33 456.57 390.34 456.64 390.34 456.72 390.34 456.81 390.34 456.91 390.34 456.99 390.34 457.06 390.33 457.12 390.33 457.18 390.32 457.22 390.31 457.26 390.29 457.29 390.27 457.31 390.25 457.32 390.23 457.33 390.2 457.33 390.17 457.33 390.12 457.32 390.07 457.29 390.03 457.27 389.98 457.23 389.93 457.17 389.86L455.26 387.95 457.4 385.17C457.45 385.1 457.48 385.05 457.51 385.01 457.53 384.97 457.54 384.93 457.54 384.89ZM460.17 384.88C460.17 384.85 460.17 384.83 460.15 384.81 460.14 384.78 460.11 384.77 460.07 384.75 460.04 384.73 459.99 384.72 459.93 384.72 459.87 384.71 459.79 384.7 459.69 384.7 459.59 384.7 459.52 384.71 459.45 384.72 459.39 384.72 459.34 384.74 459.3 384.75 459.27 384.77 459.24 384.79 459.23 384.81 459.21 384.83 459.21 384.85 459.21 384.89V390.16C459.21 390.19 459.22 390.21 459.23 390.24 459.25 390.26 459.27 390.28 459.31 390.29 459.35 390.31 459.4 390.32 459.46 390.33 459.52 390.34 459.6 390.34 459.69 390.34 459.79 390.34 459.87 390.34 459.93 390.33 460 390.32 460.05 390.31 460.08 390.29 460.12 390.28 460.14 390.26 460.16 390.23 460.17 390.21 460.18 390.19 460.18 390.16ZM460.29 391.94C460.29 391.71 460.25 391.56 460.16 391.48 460.08 391.39 459.92 391.35 459.69 391.35 459.46 391.35 459.31 391.39 459.22 391.47 459.14 391.55 459.1 391.71 459.1 391.93 459.1 392.16 459.14 392.31 459.23 392.39 459.31 392.47 459.47 392.51 459.7 392.51 459.93 392.51 460.08 392.47 460.17 392.39 460.25 392.31 460.29 392.16 460.29 391.94ZM466 384.88C466 384.85 465.99 384.82 465.98 384.8 465.96 384.78 465.93 384.76 465.9 384.74 465.86 384.73 465.82 384.72 465.75 384.71 465.69 384.7 465.61 384.7 465.52 384.7 465.42 384.7 465.34 384.7 465.28 384.71 465.22 384.72 465.17 384.73 465.13 384.74 465.1 384.76 465.07 384.78 465.06 384.8 465.04 384.82 465.03 384.85 465.03 384.88L465.04 387.97C465.04 388.27 465.01 388.51 464.97 388.69 464.92 388.88 464.85 389.04 464.76 389.17 464.67 389.3 464.56 389.4 464.41 389.47 464.27 389.54 464.11 389.58 463.92 389.58 463.68 389.58 463.43 389.49 463.19 389.32 462.95 389.15 462.69 388.9 462.43 388.57L462.42 384.88C462.42 384.85 462.42 384.82 462.4 384.8 462.39 384.78 462.36 384.76 462.32 384.75 462.29 384.73 462.24 384.72 462.18 384.71 462.12 384.7 462.04 384.7 461.94 384.7 461.84 384.7 461.77 384.71 461.7 384.71 461.64 384.72 461.59 384.73 461.55 384.75 461.52 384.76 461.49 384.78 461.48 384.8 461.46 384.83 461.46 384.85 461.46 384.88V390.16C461.46 390.19 461.47 390.21 461.48 390.24 461.49 390.26 461.52 390.28 461.55 390.29 461.59 390.31 461.63 390.32 461.69 390.33 461.74 390.34 461.81 390.34 461.9 390.34 461.99 390.34 462.06 390.33 462.12 390.33 462.17 390.32 462.22 390.31 462.25 390.29 462.28 390.28 462.3 390.26 462.32 390.23 462.33 390.21 462.34 390.19 462.34 390.16V389.46C462.63 389.79 462.93 390.03 463.22 390.19 463.52 390.34 463.82 390.42 464.12 390.42 464.47 390.42 464.77 390.36 465.01 390.24 465.25 390.12 465.44 389.96 465.59 389.76 465.74 389.56 465.84 389.33 465.91 389.06 465.97 388.79 466 388.47 466 388.09ZM472.62 389.9C472.62 389.77 472.6 389.67 472.56 389.61 472.53 389.55 472.48 389.52 472.42 389.52H471.66C471.8 389.38 471.9 389.22 471.95 389.05 472.01 388.88 472.03 388.71 472.03 388.52 472.03 388.22 471.98 387.95 471.89 387.71 471.79 387.48 471.65 387.28 471.47 387.12 471.28 386.96 471.07 386.83 470.82 386.75 470.57 386.66 470.29 386.62 469.99 386.62 469.77 386.62 469.57 386.65 469.37 386.71 469.18 386.76 469.03 386.83 468.93 386.92 468.85 386.85 468.8 386.77 468.75 386.68 468.71 386.59 468.68 386.49 468.68 386.37 468.68 386.23 468.75 386.12 468.87 386.03 469 385.94 469.17 385.89 469.38 385.88L470.76 385.82C471.02 385.81 471.26 385.78 471.48 385.71 471.7 385.65 471.89 385.56 472.05 385.44 472.21 385.32 472.33 385.17 472.42 385 472.51 384.82 472.56 384.62 472.56 384.39 472.55 384.15 472.5 383.92 472.4 383.7 472.3 383.48 472.14 383.29 471.94 383.12 471.73 382.96 471.46 382.83 471.14 382.73 470.81 382.64 470.43 382.59 469.99 382.59 469.56 382.59 469.2 382.63 468.9 382.7 468.6 382.77 468.36 382.87 468.16 382.99 467.97 383.12 467.83 383.27 467.75 383.44 467.66 383.62 467.62 383.81 467.62 384.01 467.62 384.14 467.64 384.26 467.67 384.38 467.7 384.5 467.75 384.62 467.81 384.73 467.88 384.84 467.96 384.94 468.05 385.04 468.15 385.14 468.26 385.24 468.38 385.34 468.19 385.44 468.05 385.56 467.96 385.71 467.87 385.86 467.82 386.02 467.82 386.19 467.82 386.43 467.87 386.64 467.97 386.83 468.07 387.01 468.19 387.18 468.33 387.33 468.21 387.48 468.12 387.64 468.05 387.82 467.98 388 467.94 388.22 467.94 388.48 467.94 388.78 467.99 389.05 468.1 389.29 468.2 389.53 468.34 389.73 468.52 389.89 468.7 390.05 468.91 390.18 469.17 390.27 469.42 390.36 469.69 390.4 469.99 390.4 470.15 390.4 470.3 390.39 470.44 390.37 470.58 390.35 470.71 390.33 470.83 390.3H472.42C472.49 390.3 472.54 390.26 472.57 390.2 472.6 390.14 472.62 390.04 472.62 389.9ZM471.11 388.52C471.11 388.88 471.01 389.16 470.81 389.36 470.61 389.56 470.33 389.66 469.97 389.66 469.78 389.66 469.62 389.63 469.48 389.57 469.34 389.51 469.23 389.42 469.14 389.31 469.04 389.2 468.98 389.07 468.93 388.93 468.89 388.79 468.86 388.64 468.86 388.48 468.86 388.14 468.96 387.86 469.16 387.66 469.35 387.46 469.63 387.36 469.99 387.36 470.18 387.36 470.34 387.39 470.48 387.45 470.63 387.51 470.74 387.6 470.83 387.71 470.93 387.81 470.99 387.94 471.04 388.08 471.08 388.22 471.11 388.36 471.11 388.52ZM471.59 384.34C471.59 384.56 471.5 384.74 471.31 384.86 471.13 384.99 470.87 385.05 470.56 385.06L469.19 385.11C469.07 385.01 468.96 384.92 468.88 384.83 468.8 384.74 468.74 384.66 468.69 384.58 468.65 384.5 468.61 384.42 468.6 384.34 468.58 384.26 468.57 384.18 468.57 384.1 468.57 383.85 468.7 383.66 468.96 383.52 469.21 383.39 469.57 383.33 470.03 383.33 470.33 383.33 470.57 383.35 470.77 383.41 470.97 383.47 471.13 383.54 471.25 383.64 471.37 383.73 471.46 383.84 471.51 383.96 471.56 384.08 471.59 384.21 471.59 384.34ZM480.96 387.73C480.96 387.57 480.92 387.47 480.85 387.4 480.77 387.34 480.68 387.3 480.58 387.3L477.11 387.31C477.11 387.02 477.14 386.75 477.2 386.52 477.26 386.28 477.35 386.08 477.49 385.91 477.63 385.75 477.81 385.62 478.03 385.53 478.25 385.44 478.52 385.39 478.83 385.39 479.09 385.39 479.31 385.41 479.51 385.45 479.7 385.49 479.87 385.54 480.01 385.59 480.16 385.64 480.28 385.68 480.37 385.73 480.46 385.77 480.53 385.79 480.58 385.79 480.6 385.79 480.63 385.78 480.65 385.77 480.67 385.75 480.69 385.73 480.7 385.7 480.71 385.68 480.72 385.64 480.73 385.59 480.73 385.54 480.74 385.48 480.74 385.41 480.74 385.36 480.73 385.32 480.73 385.28 480.73 385.24 480.72 385.21 480.72 385.18 480.71 385.15 480.7 385.12 480.69 385.1 480.67 385.08 480.65 385.06 480.63 385.03 480.61 385.01 480.55 384.98 480.44 384.93 480.34 384.88 480.2 384.83 480.03 384.79 479.86 384.74 479.67 384.7 479.45 384.66 479.23 384.62 478.99 384.61 478.74 384.61 478.31 384.61 477.93 384.67 477.6 384.79 477.28 384.91 477 385.09 476.78 385.33 476.56 385.57 476.39 385.87 476.28 386.23 476.16 386.59 476.11 387 476.11 387.48 476.11 387.93 476.17 388.34 476.29 388.7 476.4 389.06 476.57 389.37 476.79 389.62 477.02 389.87 477.28 390.07 477.59 390.2 477.91 390.33 478.26 390.4 478.64 390.4 479.06 390.4 479.41 390.33 479.7 390.2 479.99 390.07 480.23 389.89 480.42 389.66 480.61 389.44 480.74 389.17 480.83 388.87 480.92 388.57 480.96 388.25 480.96 387.9ZM479.99 388.01C480 388.52 479.89 388.92 479.65 389.21 479.41 389.5 479.06 389.64 478.59 389.64 478.35 389.65 478.14 389.6 477.96 389.51 477.78 389.42 477.63 389.3 477.51 389.15 477.39 389.01 477.29 388.83 477.22 388.64 477.16 388.44 477.12 388.23 477.11 388.02ZM485.55 389.78C485.55 389.7 485.54 389.63 485.54 389.57 485.54 389.51 485.53 389.46 485.52 389.43 485.5 389.4 485.49 389.37 485.47 389.35 485.45 389.34 485.43 389.33 485.4 389.33 485.37 389.33 485.33 389.34 485.28 389.35 485.24 389.37 485.19 389.39 485.13 389.41 485.08 389.42 485.01 389.44 484.94 389.46 484.87 389.47 484.8 389.48 484.71 389.48 484.62 389.48 484.52 389.46 484.43 389.42 484.33 389.38 484.23 389.32 484.13 389.23 484.03 389.14 483.92 389.02 483.8 388.87 483.69 388.72 483.57 388.54 483.43 388.33L483.42 384.86C483.42 384.83 483.42 384.8 483.4 384.78 483.39 384.76 483.36 384.74 483.32 384.72 483.29 384.71 483.24 384.7 483.18 384.69 483.12 384.68 483.04 384.68 482.94 384.68 482.84 384.68 482.77 384.68 482.7 384.69 482.64 384.7 482.59 384.71 482.55 384.72 482.52 384.74 482.49 384.76 482.48 384.78 482.46 384.8 482.46 384.83 482.46 384.86V390.13C482.46 390.16 482.47 390.19 482.48 390.21 482.49 390.23 482.52 390.25 482.55 390.27 482.59 390.29 482.63 390.3 482.69 390.31 482.74 390.31 482.81 390.31 482.9 390.31 482.99 390.31 483.06 390.31 483.12 390.3 483.17 390.3 483.22 390.29 483.25 390.27 483.28 390.25 483.3 390.23 483.32 390.21 483.33 390.19 483.34 390.16 483.34 390.13V389.36C483.48 389.57 483.62 389.75 483.74 389.88 483.87 390.01 483.99 390.12 484.1 390.19 484.22 390.27 484.33 390.32 484.44 390.35 484.55 390.38 484.67 390.39 484.78 390.39 484.83 390.39 484.89 390.39 484.95 390.38 485.02 390.38 485.08 390.37 485.15 390.35 485.22 390.34 485.29 390.32 485.34 390.3 485.4 390.28 485.44 390.26 485.46 390.24 485.49 390.22 485.5 390.2 485.51 390.18 485.52 390.17 485.53 390.14 485.53 390.12 485.54 390.09 485.54 390.05 485.54 390 485.54 389.94 485.55 389.87 485.55 389.78ZM489.3 389.78C489.3 389.69 489.29 389.62 489.29 389.56 489.29 389.5 489.28 389.46 489.27 389.42 489.25 389.39 489.24 389.37 489.22 389.35 489.2 389.33 489.18 389.32 489.15 389.32 489.12 389.32 489.08 389.33 489.03 389.35 488.99 389.37 488.94 389.38 488.88 389.4 488.83 389.42 488.76 389.44 488.69 389.45 488.62 389.47 488.55 389.48 488.46 389.48 488.37 389.48 488.27 389.46 488.18 389.42 488.08 389.38 487.98 389.31 487.88 389.22 487.78 389.13 487.67 389.02 487.55 388.87 487.44 388.72 487.32 388.54 487.18 388.32L487.17 384.85C487.17 384.82 487.17 384.8 487.15 384.77 487.14 384.75 487.11 384.73 487.07 384.72 487.04 384.7 486.99 384.69 486.93 384.68 486.87 384.68 486.79 384.67 486.69 384.67 486.59 384.67 486.52 384.68 486.45 384.68 486.39 384.69 486.34 384.7 486.3 384.72 486.27 384.74 486.24 384.75 486.23 384.78 486.21 384.8 486.21 384.82 486.21 384.85V390.13C486.21 390.16 486.22 390.19 486.23 390.21 486.24 390.23 486.27 390.25 486.3 390.27 486.34 390.28 486.38 390.3 486.44 390.3 486.49 390.31 486.56 390.31 486.65 390.31 486.74 390.31 486.81 390.31 486.87 390.3 486.92 390.29 486.97 390.28 487 390.27 487.03 390.25 487.05 390.23 487.07 390.21 487.08 390.18 487.09 390.16 487.09 390.13V389.36C487.23 389.57 487.37 389.74 487.49 389.87 487.62 390.01 487.74 390.11 487.85 390.19 487.97 390.26 488.08 390.32 488.19 390.35 488.3 390.37 488.42 390.39 488.53 390.39 488.58 390.39 488.64 390.39 488.7 390.38 488.77 390.37 488.83 390.36 488.9 390.35 488.97 390.33 489.04 390.31 489.09 390.29 489.15 390.28 489.19 390.26 489.21 390.24 489.24 390.22 489.25 390.2 489.26 390.18 489.27 390.16 489.28 390.14 489.28 390.11 489.29 390.09 489.29 390.05 489.29 389.99 489.29 389.94 489.3 389.87 489.3 389.78ZM495.62 387.54C495.61 387.11 495.56 386.71 495.44 386.35 495.33 385.99 495.16 385.68 494.94 385.42 494.71 385.16 494.43 384.95 494.09 384.81 493.75 384.66 493.36 384.59 492.92 384.59 492.48 384.59 492.11 384.65 491.78 384.78 491.46 384.91 491.19 385.1 490.98 385.35 490.76 385.59 490.6 385.89 490.5 386.24 490.39 386.6 490.34 386.99 490.34 387.44 490.34 387.87 490.4 388.27 490.51 388.63 490.62 388.99 490.79 389.3 491.02 389.56 491.24 389.82 491.52 390.02 491.86 390.17 492.19 390.31 492.59 390.38 493.03 390.38 493.47 390.38 493.85 390.32 494.17 390.19 494.49 390.06 494.76 389.87 494.97 389.63 495.19 389.38 495.35 389.08 495.46 388.73 495.56 388.38 495.62 387.98 495.62 387.54ZM494.61 387.48C494.61 387.76 494.59 388.03 494.53 388.28 494.48 388.54 494.39 388.76 494.27 388.95 494.15 389.14 493.98 389.3 493.78 389.41 493.57 389.52 493.31 389.58 493 389.58 492.71 389.58 492.46 389.53 492.25 389.42 492.05 389.32 491.88 389.18 491.74 388.99 491.61 388.81 491.51 388.59 491.44 388.34 491.38 388.08 491.34 387.8 491.34 387.5 491.34 387.21 491.37 386.94 491.42 386.69 491.48 386.43 491.56 386.21 491.69 386.02 491.81 385.83 491.98 385.68 492.19 385.57 492.4 385.46 492.66 385.4 492.97 385.4 493.25 385.4 493.5 385.45 493.71 385.56 493.92 385.66 494.09 385.8 494.22 385.98 494.36 386.17 494.45 386.38 494.52 386.64 494.58 386.89 494.61 387.17 494.61 387.48ZM499.8 389.77C499.8 389.68 499.79 389.61 499.79 389.55 499.79 389.49 499.78 389.45 499.77 389.41 499.75 389.38 499.74 389.35 499.72 389.34 499.7 389.32 499.68 389.31 499.65 389.31 499.62 389.31 499.58 389.32 499.53 389.34 499.49 389.35 499.44 389.37 499.38 389.39 499.33 389.41 499.26 389.42 499.19 389.44 499.12 389.46 499.05 389.46 498.96 389.46 498.87 389.46 498.77 389.44 498.68 389.4 498.58 389.37 498.48 389.3 498.38 389.21 498.28 389.12 498.17 389 498.05 388.85 497.94 388.71 497.82 388.53 497.68 388.31L497.67 384.84C497.67 384.81 497.67 384.78 497.65 384.76 497.64 384.74 497.61 384.72 497.57 384.71 497.54 384.69 497.49 384.68 497.43 384.67 497.37 384.66 497.29 384.66 497.19 384.66 497.09 384.66 497.02 384.66 496.95 384.67 496.89 384.68 496.84 384.69 496.8 384.71 496.77 384.72 496.74 384.74 496.73 384.76 496.71 384.79 496.71 384.81 496.71 384.84V390.12C496.71 390.15 496.72 390.17 496.73 390.2 496.74 390.22 496.77 390.24 496.8 390.25 496.84 390.27 496.88 390.28 496.94 390.29 496.99 390.29 497.06 390.3 497.15 390.3 497.24 390.3 497.31 390.29 497.37 390.29 497.42 390.28 497.47 390.27 497.5 390.25 497.53 390.24 497.55 390.22 497.57 390.19 497.58 390.17 497.59 390.15 497.59 390.12V389.35C497.73 389.56 497.87 389.73 497.99 389.86 498.12 390 498.24 390.1 498.35 390.18 498.47 390.25 498.58 390.3 498.69 390.33 498.8 390.36 498.92 390.38 499.03 390.38 499.08 390.38 499.14 390.37 499.2 390.37 499.27 390.36 499.33 390.35 499.4 390.34 499.47 390.32 499.54 390.3 499.59 390.28 499.65 390.26 499.69 390.24 499.71 390.22 499.74 390.2 499.75 390.19 499.76 390.17 499.77 390.15 499.78 390.13 499.78 390.1 499.79 390.07 499.79 390.03 499.79 389.98 499.79 389.93 499.8 389.86 499.8 389.77ZM508.7 385.63C508.7 385.53 508.69 385.45 508.69 385.39 508.68 385.33 508.66 385.29 508.64 385.27 508.62 385.24 508.6 385.23 508.57 385.23 508.54 385.24 508.51 385.25 508.46 385.27L503.85 387.61C503.81 387.63 503.78 387.68 503.75 387.75 503.73 387.83 503.72 387.93 503.72 388.07 503.72 388.14 503.72 388.2 503.73 388.25 503.73 388.31 503.74 388.35 503.76 388.39 503.77 388.42 503.79 388.45 503.8 388.48 503.82 388.5 503.84 388.52 503.87 388.53L508.47 390.84C508.56 390.88 508.62 390.88 508.65 390.83 508.69 390.79 508.7 390.67 508.7 390.49 508.7 390.38 508.7 390.29 508.69 390.22 508.69 390.15 508.68 390.1 508.66 390.06 508.65 390.02 508.63 389.99 508.61 389.96 508.58 389.94 508.54 389.92 508.5 389.9L504.72 388.06 508.47 386.24C508.52 386.21 508.56 386.18 508.59 386.16 508.62 386.14 508.64 386.11 508.66 386.07 508.67 386.03 508.68 385.97 508.69 385.9 508.69 385.84 508.7 385.75 508.7 385.63Z" fill="#3d64ac"/>
</g>
<g clip-path="url(#clip_16)">
<path transform="matrix(1,0,0,-1,-236.2537,516.1975)" d="M517.38 388.48C517.38 387.9 517.34 387.37 517.24 386.89 517.15 386.41 517 385.99 516.79 385.65 516.57 385.3 516.29 385.04 515.95 384.85 515.61 384.66 515.18 384.56 514.68 384.56 514.2 384.56 513.8 384.65 513.47 384.82 513.15 384.99 512.89 385.24 512.69 385.57 512.49 385.9 512.35 386.31 512.26 386.79 512.18 387.27 512.14 387.83 512.14 388.45 512.14 389.03 512.19 389.56 512.28 390.04 512.38 390.52 512.53 390.94 512.74 391.28 512.95 391.63 513.23 391.9 513.57 392.09 513.92 392.28 514.34 392.37 514.84 392.37 515.32 392.37 515.72 392.28 516.05 392.11 516.38 391.94 516.64 391.69 516.84 391.36 517.04 391.03 517.18 390.62 517.26 390.14 517.34 389.66 517.38 389.11 517.38 388.48ZM516.35 388.41C516.35 388.79 516.34 389.13 516.31 389.43 516.29 389.73 516.25 390 516.19 390.23 516.14 390.46 516.07 390.66 515.99 390.82 515.91 390.99 515.8 391.13 515.69 391.23 515.57 391.34 515.44 391.42 515.29 391.47 515.14 391.52 514.97 391.54 514.78 391.54 514.45 391.54 514.18 391.47 513.97 391.31 513.76 391.15 513.6 390.94 513.48 390.67 513.36 390.39 513.28 390.07 513.24 389.7 513.19 389.34 513.17 388.94 513.17 388.52 513.17 387.95 513.2 387.47 513.26 387.08 513.32 386.68 513.41 386.36 513.53 386.11 513.66 385.86 513.82 385.67 514.02 385.56 514.22 385.45 514.46 385.39 514.74 385.39 514.96 385.39 515.15 385.43 515.32 385.5 515.48 385.57 515.62 385.67 515.74 385.8 515.86 385.93 515.96 386.08 516.04 386.27 516.12 386.45 516.18 386.65 516.23 386.88 516.27 387.1 516.31 387.34 516.33 387.6 516.34 387.86 516.35 388.13 516.35 388.41Z" fill="#3d64ac"/>
</g>
<g clip-path="url(#clip_17)">
<path transform="matrix(1,0,0,-1,-236.2537,516.1975)" d="M284.56 391.45 284.57 385.06 278.17 388.24 284.56 391.45Z" fill="#4672c4" fill-rule="evenodd"/>
</g>
<g clip-path="url(#clip_18)">
<path transform="matrix(1,0,0,-1,-236.2537,516.1975)" stroke-width="1" stroke-linecap="round" stroke-linejoin="round" fill="none" stroke="#4672c4" d="M284.56 391.45 284.57 385.06 278.17 388.24 284.56 391.45ZM284.56 388.25 408.97 388.4"/>
</g>
<g clip-path="url(#clip_19)">
<path transform="matrix(1,0,0,-1,-236.2537,516.1975)" d="M298.75 381.07 388.41 381.17 388.39 395.57 298.73 395.47 298.75 381.07Z" fill="#ffffff" fill-rule="evenodd"/>
</g>
<g clip-path="url(#clip_20)">
<path transform="matrix(1,0,0,-1,-236.2537,516.1975)" d="M305.1 385.21C305.1 385.1 305.09 385.01 305.08 384.94 305.06 384.87 305.04 384.82 305.01 384.79 304.97 384.76 304.93 384.73 304.86 384.7 304.8 384.68 304.73 384.65 304.65 384.64 304.57 384.62 304.49 384.6 304.4 384.59 304.31 384.58 304.22 384.57 304.13 384.57 303.85 384.57 303.62 384.61 303.42 384.68 303.23 384.75 303.07 384.86 302.94 385.01 302.82 385.16 302.73 385.34 302.67 385.57 302.61 385.79 302.58 386.06 302.58 386.36V389.44H301.84C301.78 389.44 301.74 389.47 301.7 389.53 301.67 389.6 301.65 389.7 301.65 389.84 301.65 389.91 301.65 389.98 301.66 390.03 301.67 390.08 301.68 390.12 301.7 390.15 301.72 390.19 301.74 390.21 301.76 390.22 301.79 390.24 301.82 390.24 301.85 390.24H302.58V391.5C302.58 391.53 302.58 391.55 302.6 391.57 302.61 391.6 302.64 391.62 302.67 391.64 302.71 391.65 302.76 391.67 302.82 391.67 302.89 391.68 302.96 391.69 303.06 391.69 303.16 391.69 303.24 391.68 303.3 391.68 303.36 391.67 303.41 391.65 303.44 391.64 303.48 391.62 303.51 391.6 303.52 391.58 303.54 391.55 303.54 391.53 303.54 391.5L303.55 390.25H304.9C304.93 390.25 304.96 390.24 304.98 390.23 305 390.21 305.03 390.19 305.04 390.16 305.06 390.12 305.07 390.08 305.08 390.03 305.09 389.98 305.09 389.92 305.09 389.84 305.09 389.7 305.08 389.6 305.04 389.54 305.01 389.48 304.96 389.44 304.9 389.44H303.55V386.5C303.55 386.14 303.6 385.86 303.71 385.68 303.82 385.49 304.01 385.4 304.29 385.4 304.38 385.4 304.46 385.41 304.53 385.43 304.6 385.45 304.66 385.46 304.72 385.48 304.77 385.5 304.82 385.52 304.86 385.54 304.9 385.56 304.93 385.57 304.96 385.57 304.98 385.57 305 385.56 305.02 385.55 305.04 385.54 305.05 385.52 305.06 385.5 305.07 385.47 305.08 385.43 305.09 385.38 305.09 385.34 305.1 385.28 305.1 385.21ZM309.18 389.75C309.18 389.67 309.18 389.6 309.18 389.54 309.17 389.48 309.17 389.43 309.15 389.4 309.14 389.37 309.13 389.34 309.11 389.32 309.09 389.31 309.07 389.3 309.04 389.3 309.01 389.3 308.97 389.31 308.92 389.32 308.88 389.34 308.83 389.36 308.77 389.38 308.71 389.39 308.65 389.41 308.58 389.43 308.51 389.44 308.43 389.45 308.35 389.45 308.25 389.45 308.16 389.43 308.06 389.39 307.97 389.35 307.87 389.29 307.77 389.2 307.67 389.11 307.56 388.99 307.44 388.84 307.33 388.69 307.21 388.51 307.07 388.29V384.82C307.07 384.79 307.07 384.77 307.05 384.75 307.03 384.72 307.01 384.7 306.97 384.69 306.94 384.67 306.89 384.66 306.83 384.65 306.77 384.65 306.69 384.64 306.59 384.64 306.49 384.64 306.42 384.65 306.35 384.65 306.29 384.66 306.24 384.67 306.2 384.69 306.17 384.7 306.14 384.72 306.13 384.74 306.11 384.77 306.11 384.79 306.11 384.82L306.1 390.1C306.1 390.13 306.11 390.15 306.12 390.18 306.13 390.2 306.15 390.22 306.19 390.23 306.22 390.25 306.27 390.26 306.32 390.27 306.38 390.28 306.45 390.28 306.54 390.28 306.63 390.28 306.7 390.28 306.75 390.27 306.81 390.26 306.85 390.25 306.89 390.24 306.92 390.22 306.94 390.2 306.95 390.18 306.97 390.16 306.97 390.13 306.97 390.1V389.33C307.12 389.54 307.25 389.71 307.38 389.85 307.51 389.98 307.63 390.08 307.74 390.16 307.85 390.24 307.97 390.29 308.08 390.32 308.19 390.35 308.3 390.36 308.41 390.36 308.47 390.36 308.52 390.36 308.59 390.35 308.65 390.35 308.72 390.34 308.79 390.32 308.86 390.31 308.92 390.29 308.98 390.27 309.04 390.25 309.08 390.23 309.1 390.21 309.12 390.19 309.14 390.17 309.15 390.16 309.16 390.14 309.16 390.12 309.17 390.09 309.17 390.06 309.18 390.02 309.18 389.97 309.18 389.92 309.18 389.84 309.18 389.75ZM314.58 384.83C314.58 384.78 314.56 384.75 314.53 384.72 314.5 384.7 314.46 384.68 314.4 384.67 314.35 384.66 314.27 384.65 314.16 384.65 314.06 384.65 313.98 384.66 313.92 384.67 313.86 384.68 313.82 384.7 313.79 384.72 313.76 384.74 313.75 384.78 313.75 384.83V385.35C313.52 385.11 313.26 384.92 312.98 384.78 312.69 384.64 312.39 384.57 312.08 384.57 311.8 384.57 311.55 384.61 311.32 384.68 311.1 384.75 310.91 384.86 310.75 384.99 310.59 385.13 310.47 385.3 310.38 385.5 310.29 385.7 310.25 385.92 310.25 386.18 310.25 386.47 310.31 386.73 310.43 386.95 310.55 387.17 310.72 387.35 310.95 387.49 311.18 387.64 311.45 387.75 311.78 387.82 312.11 387.89 312.48 387.93 312.89 387.93H313.61V388.34C313.61 388.54 313.59 388.72 313.55 388.88 313.51 389.04 313.44 389.17 313.34 389.27 313.24 389.37 313.12 389.45 312.97 389.5 312.82 389.56 312.63 389.58 312.41 389.58 312.17 389.58 311.95 389.55 311.76 389.5 311.57 389.44 311.41 389.38 311.27 389.31 311.12 389.24 311 389.18 310.91 389.12 310.81 389.06 310.74 389.04 310.7 389.04 310.66 389.04 310.64 389.04 310.61 389.06 310.59 389.07 310.57 389.1 310.55 389.13 310.53 389.16 310.52 389.2 310.51 389.25 310.51 389.3 310.5 389.35 310.5 389.41 310.5 389.51 310.51 389.59 310.52 389.64 310.54 389.7 310.57 389.75 310.62 389.8 310.67 389.85 310.76 389.91 310.89 389.98 311.02 390.05 311.17 390.11 311.34 390.17 311.51 390.23 311.69 390.27 311.89 390.31 312.09 390.35 312.29 390.37 312.49 390.37 312.87 390.37 313.19 390.33 313.46 390.24 313.73 390.15 313.94 390.03 314.1 389.86 314.27 389.7 314.39 389.49 314.46 389.24 314.54 389 314.57 388.71 314.58 388.38ZM313.62 387.23H312.79C312.52 387.23 312.29 387.21 312.1 387.16 311.9 387.12 311.74 387.05 311.61 386.97 311.48 386.88 311.39 386.77 311.33 386.65 311.27 386.53 311.24 386.38 311.24 386.22 311.24 385.95 311.33 385.73 311.5 385.57 311.67 385.41 311.92 385.33 312.23 385.33 312.48 385.33 312.72 385.39 312.93 385.52 313.15 385.65 313.38 385.85 313.62 386.11ZM320.4 385.64C320.4 385.58 320.39 385.52 320.39 385.47 320.39 385.42 320.38 385.38 320.37 385.35 320.36 385.31 320.35 385.28 320.34 385.26 320.32 385.23 320.29 385.2 320.24 385.15 320.19 385.1 320.11 385.04 319.99 384.97 319.88 384.89 319.74 384.83 319.6 384.77 319.45 384.71 319.29 384.67 319.12 384.63 318.95 384.6 318.77 384.58 318.59 384.58 318.21 384.58 317.87 384.64 317.58 384.77 317.29 384.89 317.04 385.07 316.84 385.31 316.65 385.55 316.5 385.85 316.39 386.2 316.29 386.55 316.24 386.95 316.23 387.41 316.23 387.93 316.3 388.37 316.42 388.75 316.55 389.12 316.72 389.43 316.94 389.66 317.16 389.9 317.42 390.08 317.72 390.2 318.02 390.31 318.34 390.37 318.69 390.37 318.86 390.37 319.02 390.35 319.18 390.32 319.34 390.29 319.49 390.25 319.62 390.2 319.75 390.15 319.87 390.09 319.97 390.02 320.08 389.96 320.15 389.9 320.2 389.86 320.25 389.81 320.28 389.77 320.3 389.74 320.31 389.72 320.33 389.68 320.34 389.65 320.35 389.61 320.36 389.57 320.36 389.52 320.37 389.47 320.37 389.42 320.37 389.35 320.37 389.19 320.35 389.09 320.32 389.03 320.28 388.97 320.24 388.94 320.19 388.94 320.13 388.94 320.06 388.97 319.99 389.03 319.91 389.1 319.81 389.17 319.7 389.25 319.58 389.32 319.44 389.39 319.27 389.46 319.1 389.52 318.91 389.55 318.68 389.55 318.22 389.55 317.86 389.37 317.61 389.02 317.36 388.66 317.24 388.14 317.24 387.46 317.24 387.12 317.28 386.82 317.34 386.57 317.4 386.31 317.5 386.1 317.62 385.93 317.75 385.75 317.9 385.63 318.09 385.54 318.27 385.46 318.48 385.42 318.71 385.42 318.93 385.42 319.13 385.45 319.3 385.52 319.46 385.59 319.61 385.67 319.73 385.76 319.85 385.84 319.96 385.92 320.04 385.98 320.13 386.05 320.19 386.09 320.24 386.09 320.27 386.09 320.29 386.08 320.31 386.06 320.33 386.05 320.34 386.02 320.36 385.99 320.37 385.95 320.38 385.9 320.39 385.84 320.39 385.79 320.4 385.72 320.4 385.64ZM325.44 384.85C325.44 384.82 325.43 384.79 325.41 384.77 325.4 384.75 325.37 384.73 325.33 384.71 325.3 384.7 325.25 384.68 325.18 384.68 325.11 384.67 325.03 384.66 324.93 384.66 324.82 384.66 324.73 384.67 324.67 384.67 324.6 384.68 324.54 384.69 324.49 384.7 324.45 384.71 324.41 384.73 324.38 384.76 324.35 384.78 324.32 384.82 324.3 384.85L322.07 387.77V384.84C322.07 384.81 322.07 384.78 322.05 384.76 322.03 384.74 322.01 384.72 321.97 384.71 321.94 384.69 321.89 384.68 321.83 384.67 321.77 384.66 321.69 384.66 321.59 384.66 321.49 384.66 321.42 384.66 321.35 384.67 321.29 384.68 321.24 384.69 321.2 384.71 321.17 384.72 321.14 384.74 321.13 384.76 321.11 384.78 321.11 384.81 321.11 384.84L321.1 392.67C321.1 392.7 321.1 392.73 321.12 392.75 321.13 392.77 321.16 392.79 321.19 392.81 321.23 392.83 321.28 392.84 321.34 392.84 321.41 392.85 321.48 392.86 321.58 392.86 321.68 392.86 321.76 392.85 321.82 392.85 321.88 392.84 321.93 392.83 321.96 392.81 322 392.79 322.03 392.78 322.04 392.75 322.06 392.73 322.06 392.7 322.06 392.67L322.07 387.9 324.06 390.09C324.09 390.13 324.12 390.17 324.16 390.19 324.19 390.22 324.24 390.24 324.28 390.26 324.33 390.27 324.39 390.28 324.46 390.29 324.52 390.3 324.6 390.3 324.7 390.3 324.8 390.3 324.88 390.3 324.94 390.29 325.01 390.29 325.06 390.28 325.11 390.26 325.15 390.25 325.18 390.23 325.19 390.21 325.21 390.19 325.22 390.16 325.22 390.12 325.22 390.08 325.21 390.03 325.18 389.98 325.16 389.94 325.11 389.88 325.06 389.82L323.15 387.91 325.3 385.13C325.35 385.06 325.38 385.01 325.4 384.97 325.43 384.92 325.44 384.89 325.44 384.85ZM328.07 384.85C328.07 384.82 328.07 384.79 328.05 384.77 328.03 384.75 328.01 384.73 327.97 384.71 327.94 384.7 327.89 384.69 327.83 384.68 327.77 384.67 327.69 384.67 327.59 384.67 327.49 384.67 327.42 384.67 327.35 384.68 327.29 384.69 327.24 384.7 327.2 384.71 327.17 384.73 327.14 384.75 327.13 384.77 327.11 384.79 327.11 384.82 327.11 384.85L327.1 390.12C327.1 390.15 327.11 390.17 327.12 390.2 327.13 390.22 327.16 390.24 327.2 390.26 327.23 390.27 327.28 390.28 327.35 390.29 327.41 390.3 327.49 390.3 327.58 390.3 327.68 390.3 327.76 390.3 327.82 390.29 327.88 390.28 327.93 390.27 327.97 390.26 328 390.24 328.03 390.22 328.04 390.2 328.06 390.17 328.07 390.15 328.07 390.12ZM328.18 391.9C328.18 391.68 328.13 391.52 328.05 391.44 327.96 391.36 327.8 391.32 327.57 391.32 327.35 391.32 327.19 391.36 327.11 391.44 327.02 391.52 326.98 391.67 326.98 391.89 326.98 392.12 327.02 392.27 327.11 392.35 327.2 392.44 327.35 392.48 327.58 392.48 327.81 392.48 327.97 392.44 328.05 392.36 328.13 392.28 328.18 392.13 328.18 391.9ZM333.9 384.86C333.9 384.82 333.89 384.8 333.87 384.78 333.86 384.75 333.83 384.74 333.8 384.72 333.76 384.7 333.71 384.69 333.65 384.69 333.59 384.68 333.51 384.67 333.42 384.67 333.32 384.67 333.24 384.68 333.18 384.68 333.11 384.69 333.07 384.7 333.03 384.72 333 384.74 332.97 384.75 332.95 384.78 332.94 384.8 332.93 384.82 332.93 384.85V387.94C332.93 388.24 332.9 388.49 332.86 388.67 332.81 388.85 332.74 389.01 332.65 389.14 332.56 389.28 332.44 389.38 332.3 389.45 332.16 389.52 331.99 389.55 331.81 389.55 331.56 389.55 331.32 389.47 331.08 389.29 330.84 389.12 330.58 388.87 330.32 388.54V384.85C330.32 384.82 330.32 384.79 330.3 384.77 330.28 384.75 330.26 384.73 330.22 384.72 330.19 384.7 330.14 384.69 330.08 384.68 330.02 384.67 329.94 384.67 329.84 384.67 329.74 384.67 329.67 384.67 329.6 384.68 329.54 384.69 329.49 384.7 329.45 384.72 329.42 384.73 329.39 384.75 329.38 384.77 329.36 384.79 329.36 384.82 329.36 384.85L329.35 390.12C329.35 390.15 329.36 390.18 329.37 390.2 329.38 390.22 329.4 390.24 329.44 390.26 329.47 390.28 329.52 390.29 329.57 390.3 329.63 390.3 329.7 390.31 329.79 390.31 329.88 390.31 329.95 390.3 330 390.3 330.06 390.29 330.1 390.28 330.14 390.26 330.17 390.24 330.19 390.23 330.2 390.2 330.22 390.18 330.22 390.16 330.22 390.12V389.43C330.52 389.76 330.82 390 331.11 390.16 331.41 390.31 331.7 390.39 332 390.39 332.36 390.39 332.65 390.33 332.89 390.21 333.13 390.09 333.33 389.93 333.48 389.74 333.62 389.54 333.73 389.3 333.8 389.04 333.86 388.77 333.89 388.45 333.89 388.07ZM340.51 389.9C340.51 389.76 340.49 389.66 340.45 389.6 340.41 389.54 340.37 389.51 340.31 389.51H339.55C339.69 389.37 339.79 389.21 339.84 389.04 339.89 388.87 339.92 388.7 339.92 388.51 339.92 388.21 339.87 387.94 339.78 387.7 339.68 387.47 339.54 387.27 339.36 387.11 339.18 386.95 338.96 386.82 338.71 386.74 338.46 386.65 338.18 386.61 337.88 386.61 337.67 386.61 337.46 386.63 337.27 386.69 337.07 386.75 336.92 386.82 336.82 386.9 336.75 386.83 336.69 386.75 336.65 386.66 336.6 386.57 336.58 386.47 336.58 386.35 336.58 386.22 336.64 386.1 336.77 386.01 336.9 385.92 337.07 385.87 337.28 385.87L338.65 385.81C338.92 385.8 339.16 385.77 339.38 385.7 339.59 385.64 339.78 385.55 339.94 385.43 340.1 385.31 340.23 385.16 340.32 384.99 340.41 384.82 340.45 384.61 340.45 384.38 340.46 384.14 340.4 383.91 340.3 383.69 340.2 383.47 340.05 383.28 339.84 383.11 339.63 382.95 339.36 382.82 339.04 382.72 338.71 382.62 338.33 382.58 337.89 382.58 337.46 382.57 337.1 382.61 336.8 382.68 336.5 382.75 336.26 382.85 336.07 382.98 335.88 383.1 335.74 383.25 335.65 383.42 335.57 383.6 335.52 383.79 335.52 383.99 335.52 384.12 335.54 384.24 335.57 384.37 335.6 384.49 335.65 384.6 335.71 384.71 335.78 384.82 335.86 384.93 335.95 385.02 336.05 385.12 336.16 385.22 336.28 385.32 336.09 385.42 335.95 385.54 335.86 385.69 335.76 385.84 335.72 386 335.72 386.17 335.72 386.41 335.77 386.62 335.86 386.81 335.96 387 336.08 387.16 336.23 387.31 336.11 387.46 336.01 387.62 335.94 387.8 335.87 387.98 335.83 388.2 335.83 388.46 335.83 388.76 335.88 389.03 335.98 389.27 336.09 389.51 336.23 389.71 336.41 389.87 336.58 390.04 336.8 390.16 337.05 390.25 337.3 390.34 337.58 390.39 337.88 390.39 338.04 390.39 338.19 390.38 338.32 390.36 338.46 390.34 338.59 390.32 338.71 390.29H340.31C340.37 390.29 340.42 390.26 340.46 390.19 340.49 390.13 340.51 390.03 340.51 389.9ZM339 388.51C339 388.87 338.9 389.15 338.7 389.35 338.5 389.55 338.22 389.65 337.86 389.65 337.67 389.65 337.51 389.62 337.37 389.55 337.23 389.49 337.12 389.4 337.02 389.29 336.93 389.19 336.86 389.06 336.82 388.92 336.77 388.77 336.75 388.62 336.75 388.47 336.75 388.12 336.85 387.85 337.05 387.65 337.25 387.45 337.52 387.35 337.88 387.35 338.07 387.35 338.24 387.38 338.38 387.44 338.52 387.5 338.63 387.59 338.73 387.69 338.82 387.8 338.89 387.93 338.93 388.07 338.97 388.21 339 388.35 339 388.51ZM339.49 384.33C339.49 384.56 339.39 384.73 339.21 384.85 339.02 384.98 338.77 385.04 338.46 385.05L337.09 385.09C336.97 385 336.86 384.9 336.78 384.81 336.7 384.73 336.64 384.64 336.59 384.56 336.55 384.48 336.51 384.4 336.5 384.33 336.48 384.25 336.47 384.17 336.47 384.09 336.47 383.83 336.6 383.64 336.86 383.51 337.12 383.38 337.48 383.31 337.94 383.31 338.23 383.31 338.47 383.34 338.67 383.4 338.87 383.46 339.03 383.53 339.15 383.63 339.27 383.72 339.36 383.83 339.41 383.95 339.46 384.07 339.49 384.2 339.49 384.33ZM348.85 387.74C348.85 387.59 348.82 387.48 348.74 387.41 348.66 387.35 348.58 387.32 348.48 387.32L345 387.31C345 387.02 345.03 386.76 345.09 386.52 345.15 386.29 345.25 386.09 345.39 385.92 345.53 385.75 345.7 385.62 345.92 385.53 346.14 385.44 346.41 385.4 346.73 385.4 346.98 385.4 347.21 385.42 347.4 385.46 347.6 385.5 347.77 385.55 347.91 385.6 348.06 385.65 348.17 385.7 348.27 385.74 348.36 385.78 348.43 385.8 348.47 385.8 348.5 385.8 348.53 385.79 348.55 385.78 348.57 385.76 348.59 385.74 348.6 385.72 348.61 385.69 348.62 385.65 348.62 385.6 348.63 385.55 348.63 385.49 348.63 385.42 348.63 385.37 348.63 385.33 348.63 385.29 348.62 385.25 348.62 385.22 348.61 385.19 348.61 385.16 348.6 385.14 348.58 385.11 348.57 385.09 348.55 385.07 348.53 385.05 348.51 385.02 348.45 384.99 348.34 384.94 348.24 384.89 348.1 384.84 347.93 384.8 347.76 384.75 347.57 384.71 347.35 384.67 347.13 384.63 346.89 384.61 346.64 384.61 346.21 384.61 345.83 384.67 345.5 384.79 345.18 384.91 344.9 385.09 344.68 385.33 344.46 385.57 344.29 385.87 344.17 386.23 344.06 386.59 344 387 344 387.48 344 387.93 344.06 388.34 344.18 388.7 344.29 389.06 344.46 389.37 344.68 389.62 344.9 389.88 345.17 390.07 345.48 390.2 345.79 390.34 346.14 390.41 346.53 390.41 346.94 390.41 347.3 390.34 347.59 390.21 347.88 390.08 348.12 389.9 348.31 389.67 348.49 389.45 348.63 389.19 348.72 388.88 348.81 388.58 348.85 388.26 348.85 387.91ZM347.88 388.02C347.89 388.53 347.78 388.93 347.54 389.22 347.3 389.51 346.95 389.65 346.48 389.65 346.24 389.65 346.03 389.61 345.85 389.52 345.67 389.43 345.52 389.31 345.4 389.16 345.28 389.01 345.18 388.84 345.11 388.64 345.05 388.44 345.01 388.24 345 388.02ZM353.43 389.81C353.43 389.72 353.43 389.65 353.43 389.59 353.42 389.53 353.42 389.48 353.4 389.45 353.39 389.42 353.38 389.39 353.36 389.38 353.34 389.36 353.32 389.35 353.29 389.35 353.26 389.35 353.22 389.36 353.17 389.38 353.13 389.39 353.08 389.41 353.02 389.43 352.96 389.45 352.9 389.46 352.83 389.48 352.76 389.49 352.68 389.5 352.6 389.5 352.5 389.5 352.41 389.48 352.31 389.44 352.22 389.4 352.12 389.34 352.02 389.25 351.92 389.16 351.81 389.04 351.69 388.89 351.58 388.74 351.46 388.56 351.32 388.34V384.88C351.32 384.84 351.32 384.82 351.3 384.8 351.28 384.78 351.26 384.76 351.22 384.74 351.19 384.73 351.14 384.71 351.08 384.71 351.02 384.7 350.94 384.69 350.84 384.69 350.74 384.69 350.67 384.7 350.6 384.71 350.54 384.71 350.49 384.72 350.45 384.74 350.42 384.76 350.39 384.77 350.38 384.8 350.36 384.82 350.36 384.84 350.36 384.87L350.35 390.15C350.35 390.18 350.36 390.21 350.37 390.23 350.38 390.25 350.4 390.27 350.44 390.29 350.47 390.3 350.52 390.32 350.57 390.32 350.63 390.33 350.7 390.33 350.79 390.33 350.88 390.33 350.95 390.33 351 390.32 351.06 390.32 351.1 390.3 351.14 390.29 351.17 390.27 351.19 390.25 351.2 390.23 351.22 390.21 351.22 390.18 351.22 390.15V389.38C351.37 389.59 351.5 389.76 351.63 389.9 351.76 390.03 351.88 390.14 351.99 390.21 352.1 390.29 352.22 390.34 352.33 390.37 352.44 390.4 352.55 390.41 352.66 390.41 352.72 390.41 352.77 390.41 352.84 390.41 352.9 390.4 352.97 390.39 353.04 390.37 353.11 390.36 353.17 390.34 353.23 390.32 353.29 390.3 353.33 390.28 353.35 390.26 353.37 390.24 353.39 390.23 353.4 390.21 353.41 390.19 353.41 390.17 353.42 390.14 353.42 390.11 353.43 390.07 353.43 390.02 353.43 389.97 353.43 389.9 353.43 389.81ZM357.18 389.81C357.18 389.72 357.18 389.65 357.18 389.59 357.17 389.54 357.17 389.49 357.15 389.46 357.14 389.42 357.13 389.4 357.11 389.38 357.09 389.36 357.07 389.35 357.04 389.35 357.01 389.35 356.97 389.36 356.92 389.38 356.88 389.4 356.83 389.41 356.77 389.43 356.71 389.45 356.65 389.47 356.58 389.48 356.51 389.5 356.43 389.51 356.35 389.5 356.25 389.5 356.16 389.49 356.06 389.45 355.97 389.41 355.87 389.34 355.77 389.25 355.67 389.16 355.56 389.04 355.44 388.89 355.33 388.75 355.21 388.56 355.07 388.35V384.88C355.07 384.85 355.07 384.82 355.05 384.8 355.03 384.78 355.01 384.76 354.97 384.75 354.94 384.73 354.89 384.72 354.83 384.71 354.77 384.7 354.69 384.7 354.59 384.7 354.49 384.7 354.42 384.7 354.35 384.71 354.29 384.72 354.24 384.73 354.2 384.74 354.17 384.76 354.14 384.78 354.13 384.8 354.11 384.82 354.11 384.85 354.11 384.88L354.1 390.15C354.1 390.18 354.11 390.21 354.12 390.23 354.13 390.25 354.15 390.27 354.19 390.29 354.22 390.31 354.27 390.32 354.32 390.33 354.38 390.33 354.45 390.33 354.54 390.33 354.63 390.33 354.7 390.33 354.75 390.33 354.81 390.32 354.85 390.31 354.89 390.29 354.92 390.27 354.94 390.25 354.95 390.23 354.97 390.21 354.97 390.18 354.97 390.15V389.39C355.12 389.6 355.25 389.77 355.38 389.9 355.51 390.04 355.63 390.14 355.74 390.22 355.85 390.29 355.97 390.35 356.08 390.37 356.19 390.4 356.3 390.42 356.41 390.42 356.47 390.42 356.52 390.42 356.59 390.41 356.65 390.4 356.72 390.39 356.79 390.38 356.86 390.36 356.92 390.35 356.98 390.33 357.04 390.31 357.08 390.29 357.1 390.27 357.12 390.25 357.14 390.23 357.15 390.21 357.16 390.19 357.16 390.17 357.17 390.14 357.17 390.12 357.18 390.08 357.18 390.02 357.18 389.97 357.18 389.9 357.18 389.81ZM363.51 387.59C363.51 387.16 363.45 386.76 363.34 386.4 363.23 386.04 363.06 385.73 362.83 385.46 362.61 385.2 362.33 385 361.99 384.85 361.65 384.7 361.26 384.63 360.82 384.63 360.38 384.63 360 384.69 359.68 384.82 359.36 384.95 359.09 385.14 358.88 385.38 358.66 385.63 358.5 385.93 358.39 386.28 358.29 386.63 358.23 387.03 358.23 387.47 358.23 387.9 358.29 388.3 358.4 388.66 358.51 389.02 358.68 389.33 358.9 389.6 359.13 389.86 359.41 390.06 359.74 390.21 360.08 390.35 360.47 390.42 360.92 390.42 361.35 390.42 361.73 390.36 362.05 390.23 362.38 390.1 362.65 389.92 362.86 389.67 363.08 389.42 363.24 389.13 363.35 388.77 363.45 388.42 363.51 388.03 363.51 387.59ZM362.51 387.52C362.51 387.81 362.48 388.07 362.43 388.33 362.37 388.58 362.28 388.8 362.16 389 362.04 389.19 361.87 389.34 361.66 389.45 361.46 389.56 361.19 389.62 360.88 389.62 360.6 389.62 360.35 389.56 360.14 389.46 359.93 389.36 359.76 389.22 359.63 389.03 359.5 388.85 359.4 388.63 359.33 388.37 359.27 388.12 359.24 387.84 359.24 387.54 359.24 387.25 359.26 386.98 359.32 386.73 359.37 386.47 359.46 386.25 359.58 386.06 359.71 385.87 359.88 385.72 360.08 385.61 360.29 385.5 360.55 385.44 360.86 385.44 361.15 385.44 361.39 385.5 361.6 385.6 361.81 385.7 361.98 385.84 362.12 386.03 362.25 386.21 362.35 386.43 362.41 386.68 362.48 386.94 362.51 387.22 362.51 387.52ZM367.68 389.82C367.68 389.74 367.68 389.66 367.68 389.61 367.67 389.55 367.67 389.5 367.65 389.47 367.64 389.44 367.63 389.41 367.61 389.39 367.59 389.37 367.57 389.37 367.54 389.37 367.51 389.37 367.47 389.37 367.42 389.39 367.38 389.41 367.33 389.43 367.27 389.44 367.21 389.46 367.15 389.48 367.08 389.49 367.01 389.51 366.93 389.52 366.85 389.52 366.75 389.52 366.66 389.5 366.56 389.46 366.47 389.42 366.37 389.35 366.27 389.26 366.17 389.17 366.06 389.06 365.94 388.91 365.83 388.76 365.71 388.58 365.57 388.36V384.89C365.57 384.86 365.57 384.83 365.55 384.81 365.53 384.79 365.51 384.77 365.47 384.76 365.44 384.74 365.39 384.73 365.33 384.72 365.27 384.71 365.18 384.71 365.09 384.71 364.99 384.71 364.92 384.71 364.85 384.72 364.79 384.73 364.74 384.74 364.7 384.76 364.67 384.77 364.64 384.79 364.63 384.81 364.61 384.83 364.61 384.86 364.61 384.89L364.6 390.16C364.6 390.2 364.61 390.22 364.62 390.24 364.63 390.27 364.65 390.29 364.69 390.3 364.72 390.32 364.77 390.33 364.82 390.34 364.88 390.34 364.95 390.35 365.04 390.35 365.13 390.35 365.2 390.34 365.25 390.34 365.31 390.33 365.35 390.32 365.39 390.3 365.42 390.29 365.44 390.27 365.45 390.25 365.47 390.22 365.47 390.2 365.47 390.17V389.4C365.62 389.61 365.75 389.78 365.88 389.91 366.01 390.05 366.13 390.15 366.24 390.23 366.35 390.3 366.47 390.36 366.58 390.39 366.69 390.42 366.8 390.43 366.91 390.43 366.97 390.43 367.02 390.43 367.09 390.42 367.15 390.42 367.22 390.41 367.29 390.39 367.36 390.38 367.42 390.36 367.48 390.34 367.54 390.32 367.58 390.3 367.6 390.28 367.62 390.26 367.64 390.24 367.65 390.22 367.66 390.21 367.66 390.18 367.67 390.16 367.67 390.13 367.68 390.09 367.68 390.04 367.68 389.98 367.68 389.91 367.68 389.82ZM376.78 388.12C376.78 388.06 376.78 388 376.77 387.94 376.77 387.89 376.76 387.85 376.74 387.81 376.73 387.77 376.72 387.74 376.7 387.72 376.68 387.69 376.66 387.68 376.63 387.67L372.04 385.34C371.99 385.32 371.96 385.31 371.92 385.31 371.89 385.31 371.87 385.32 371.85 385.35 371.83 385.37 371.82 385.41 371.81 385.47 371.81 385.53 371.8 385.6 371.8 385.69 371.8 385.8 371.8 385.89 371.81 385.95 371.81 386.02 371.82 386.07 371.83 386.12 371.85 386.16 371.87 386.19 371.89 386.21 371.92 386.24 371.96 386.26 372 386.28L375.78 388.14 372.02 389.95C371.97 389.97 371.93 389.99 371.9 390.01 371.87 390.03 371.85 390.07 371.83 390.11 371.82 390.15 371.81 390.21 371.8 390.28 371.8 390.34 371.8 390.44 371.8 390.55 371.8 390.65 371.8 390.73 371.81 390.79 371.81 390.84 371.83 390.88 371.84 390.91 371.86 390.93 371.89 390.94 371.92 390.94 371.95 390.94 371.99 390.92 372.03 390.9L376.65 388.58C376.69 388.56 376.72 388.51 376.75 388.44 376.77 388.36 376.78 388.26 376.78 388.12ZM385.12 388.58C385.12 388 385.08 387.46 384.99 386.98 384.89 386.5 384.74 386.09 384.53 385.74 384.32 385.4 384.04 385.13 383.7 384.94 383.35 384.75 382.93 384.66 382.43 384.65 381.95 384.65 381.55 384.74 381.22 384.91 380.89 385.08 380.63 385.33 380.43 385.66 380.23 385.99 380.09 386.39 380.01 386.88 379.92 387.36 379.88 387.91 379.88 388.54 379.88 389.11 379.92 389.64 380.02 390.13 380.11 390.61 380.26 391.02 380.47 391.37 380.68 391.72 380.96 391.98 381.3 392.17 381.65 392.36 382.07 392.46 382.57 392.46 383.05 392.46 383.45 392.38 383.78 392.21 384.11 392.04 384.37 391.79 384.57 391.46 384.77 391.13 384.91 390.72 384.99 390.24 385.08 389.76 385.12 389.2 385.12 388.58ZM384.09 388.51C384.09 388.89 384.08 389.22 384.05 389.53 384.02 389.83 383.98 390.09 383.93 390.32 383.87 390.55 383.81 390.75 383.72 390.92 383.64 391.08 383.54 391.22 383.42 391.33 383.3 391.43 383.17 391.51 383.02 391.56 382.87 391.61 382.7 391.63 382.51 391.63 382.18 391.63 381.91 391.55 381.7 391.4 381.5 391.24 381.33 391.03 381.21 390.75 381.1 390.48 381.01 390.16 380.97 389.79 380.93 389.42 380.91 389.03 380.91 388.61 380.91 388.04 380.94 387.56 381 387.16 381.06 386.77 381.15 386.44 381.28 386.19 381.41 385.94 381.57 385.76 381.76 385.65 381.96 385.54 382.2 385.48 382.48 385.48 382.7 385.48 382.89 385.52 383.06 385.59 383.23 385.66 383.37 385.76 383.49 385.89 383.61 386.02 383.7 386.18 383.78 386.36 383.86 386.54 383.92 386.75 383.97 386.97 384.02 387.19 384.05 387.43 384.07 387.69 384.08 387.95 384.09 388.22 384.09 388.51Z" fill="#3d64ac"/>
</g>
</g>
</svg>
