<?xml version="1.0" standalone="no"?>
<!DOCTYPE svg PUBLIC "-//W3C//DTD SVG 20010904//EN"
 "http://www.w3.org/TR/2001/REC-SVG-20010904/DTD/svg10.dtd">
<svg version="1.0" xmlns="http://www.w3.org/2000/svg"
 width="926.000000pt" height="796.000000pt" viewBox="0 0 926.000000 796.000000"
 preserveAspectRatio="xMidYMid meet">
<metadata>
Created by potrace 1.16, written by Peter Selinger 2001-2019
</metadata>
<g transform="translate(0.000000,796.000000) scale(0.100000,-0.100000)"
fill="#000000" stroke="none">
<path d="M1203 7330 c0 -25 2 -35 4 -22 2 12 2 32 0 45 -2 12 -4 2 -4 -23z"/>
<path d="M1068 7273 c7 -3 16 -2 19 1 4 3 -2 6 -13 5 -11 0 -14 -3 -6 -6z"/>
<path d="M8531 7244 c0 -11 3 -14 6 -6 3 7 2 16 -1 19 -3 4 -6 -2 -5 -13z"/>
<path d="M7860 7211 c0 -17 4 -32 8 -35 4 -2 6 11 4 30 -5 42 -12 45 -12 5z"/>
<path d="M7922 7210 c0 -19 2 -27 5 -17 2 9 2 25 0 35 -3 9 -5 1 -5 -18z"/>
<path d="M7940 7211 c0 -17 2 -31 4 -31 8 0 13 51 5 56 -5 3 -9 -9 -9 -25z"/>
<path d="M7892 7200 c0 -14 2 -19 5 -12 2 6 2 18 0 25 -3 6 -5 1 -5 -13z"/>
<path d="M7875 7101 l20 -10 -20 -1 -20 -1 20 -8 20 -8 -20 -5 c-18 -5 -17 -6
3 -7 19 -1 23 3 20 21 -2 14 -11 24 -23 25 l-20 3 20 -9z"/>
<path d="M7914 7095 c-8 -19 4 -35 24 -34 15 1 15 2 0 6 -10 2 -18 11 -18 18
0 7 8 16 18 18 16 4 16 5 -1 6 -10 0 -20 -6 -23 -14z"/>
<path d="M7964 7095 c-8 -19 4 -35 24 -34 15 1 15 2 0 6 -10 2 -18 11 -18 18
0 7 8 16 18 18 16 4 16 5 -1 6 -10 0 -20 -6 -23 -14z"/>
<path d="M8138 7101 c11 -7 10 -9 -3 -15 -19 -7 -11 -26 11 -26 8 0 14 10 14
25 0 17 -5 25 -17 25 -14 0 -15 -2 -5 -9z"/>
<path d="M8185 7085 c0 -12 6 -21 15 -21 9 0 15 9 15 21 0 12 -6 21 -15 21 -9
0 -15 -9 -15 -21z"/>
<path d="M8232 7085 c0 -16 2 -22 5 -12 2 9 2 23 0 30 -3 6 -5 -1 -5 -18z"/>
<path d="M8268 7103 c7 -3 16 -2 19 1 4 3 -2 6 -13 5 -11 0 -14 -3 -6 -6z"/>
<path d="M8269 7081 c11 -7 11 -9 0 -14 -10 -4 -9 -6 4 -6 9 -1 17 6 17 14 0
8 -8 15 -17 15 -14 0 -15 -2 -4 -9z"/>
<path d="M8047 7059 c-4 -16 -3 -18 9 -8 16 13 19 29 5 29 -5 0 -11 -9 -14
-21z"/>
<path d="M3331 6944 c0 -11 3 -14 6 -6 3 7 2 16 -1 19 -3 4 -6 -2 -5 -13z"/>
<path d="M3341 6874 c0 -11 3 -14 6 -6 3 7 2 16 -1 19 -3 4 -6 -2 -5 -13z"/>
<path d="M4001 6764 c0 -11 3 -14 6 -6 3 7 2 16 -1 19 -3 4 -6 -2 -5 -13z"/>
<path d="M8736 6477 c3 -10 9 -15 12 -12 3 3 0 11 -7 18 -10 9 -11 8 -5 -6z"/>
<path d="M2871 6454 c0 -11 3 -14 6 -6 3 7 2 16 -1 19 -3 4 -6 -2 -5 -13z"/>
<path d="M890 6306 c0 -2 18 -6 39 -8 22 -2 37 0 35 4 -5 8 -74 11 -74 4z"/>
<path d="M8696 6131 c-3 -4 6 -6 19 -3 14 2 25 6 25 8 0 8 -39 4 -44 -5z"/>
<path d="M5631 6094 c0 -11 3 -14 6 -6 3 7 2 16 -1 19 -3 4 -6 -2 -5 -13z"/>
<path d="M2022 6075 c0 -16 2 -22 5 -12 2 9 2 23 0 30 -3 6 -5 -1 -5 -18z"/>
<path d="M893 6083 c15 -2 37 -2 50 0 12 2 0 4 -28 4 -27 0 -38 -2 -22 -4z"/>
<path d="M2470 6081 c0 -5 5 -13 10 -16 6 -3 10 -2 10 4 0 5 -4 13 -10 16 -5
3 -10 2 -10 -4z"/>
<path d="M2452 6060 c0 -14 2 -19 5 -12 2 6 2 18 0 25 -3 6 -5 1 -5 -13z"/>
<path d="M2201 6054 c0 -11 3 -14 6 -6 3 7 2 16 -1 19 -3 4 -6 -2 -5 -13z"/>
<path d="M8703 6063 c9 -2 25 -2 35 0 9 3 1 5 -18 5 -19 0 -27 -2 -17 -5z"/>
<path d="M2083 6005 c0 -27 2 -38 4 -22 2 15 2 37 0 50 -2 12 -4 0 -4 -28z"/>
<path d="M7371 6024 c0 -11 3 -14 6 -6 3 7 2 16 -1 19 -3 4 -6 -2 -5 -13z"/>
<path d="M7852 6010 c0 -19 2 -27 5 -17 2 9 2 25 0 35 -3 9 -5 1 -5 -18z"/>
<path d="M2053 6015 c-17 -19 -16 -25 2 -25 8 0 15 9 15 20 0 23 -1 24 -17 5z"/>
<path d="M2122 6005 c0 -16 2 -22 5 -12 2 9 2 23 0 30 -3 6 -5 -1 -5 -18z"/>
<path d="M7821 6014 c0 -11 3 -14 6 -6 3 7 2 16 -1 19 -3 4 -6 -2 -5 -13z"/>
<path d="M2102 6000 c0 -14 2 -19 5 -12 2 6 2 18 0 25 -3 6 -5 1 -5 -13z"/>
<path d="M4961 6004 c0 -11 3 -14 6 -6 3 7 2 16 -1 19 -3 4 -6 -2 -5 -13z"/>
<path d="M4940 5991 c0 -6 4 -13 10 -16 6 -3 7 1 4 9 -7 18 -14 21 -14 7z"/>
<path d="M2431 5974 c0 -11 3 -14 6 -6 3 7 2 16 -1 19 -3 4 -6 -2 -5 -13z"/>
<path d="M2024 5966 c-3 -8 -4 -25 -2 -38 3 -17 5 -13 9 15 5 38 2 47 -7 23z"/>
<path d="M2202 5955 c0 -16 2 -22 5 -12 2 9 2 23 0 30 -3 6 -5 -1 -5 -18z"/>
<path d="M6072 5960 c0 -14 2 -19 5 -12 2 6 2 18 0 25 -3 6 -5 1 -5 -13z"/>
<path d="M1941 5944 c0 -11 3 -14 6 -6 3 7 2 16 -1 19 -3 4 -6 -2 -5 -13z"/>
<path d="M2452 5935 c0 -16 2 -22 5 -12 2 9 2 23 0 30 -3 6 -5 -1 -5 -18z"/>
<path d="M5650 5941 c0 -6 4 -13 10 -16 6 -3 7 1 4 9 -7 18 -14 21 -14 7z"/>
<path d="M6086 5935 c-3 -9 -6 -22 -5 -28 0 -7 5 -1 10 12 5 13 8 26 5 28 -2
2 -6 -3 -10 -12z"/>
<path d="M7195 5939 c-4 -6 -5 -12 -2 -15 2 -3 7 2 10 11 7 17 1 20 -8 4z"/>
<path d="M5632 5910 c0 -14 2 -19 5 -12 2 6 2 18 0 25 -3 6 -5 1 -5 -13z"/>
<path d="M5982 5840 c0 -14 2 -19 5 -12 2 6 2 18 0 25 -3 6 -5 1 -5 -13z"/>
<path d="M5900 5801 c0 -6 4 -13 10 -16 6 -3 7 1 4 9 -7 18 -14 21 -14 7z"/>
<path d="M1072 5760 c0 -19 2 -27 5 -17 2 9 2 25 0 35 -3 9 -5 1 -5 -18z"/>
<path d="M1152 5760 c0 -14 2 -19 5 -12 2 6 2 18 0 25 -3 6 -5 1 -5 -13z"/>
<path d="M6041 5744 c0 -11 3 -14 6 -6 3 7 2 16 -1 19 -3 4 -6 -2 -5 -13z"/>
<path d="M1152 5510 c0 -14 2 -19 5 -12 2 6 2 18 0 25 -3 6 -5 1 -5 -13z"/>
<path d="M1064 5498 l-19 -23 23 19 c21 18 27 26 19 26 -2 0 -12 -10 -23 -22z"/>
<path d="M1149 5268 c4 -28 6 -29 9 -9 2 13 0 27 -5 32 -6 6 -7 -3 -4 -23z"/>
<path d="M1082 5020 c0 -19 2 -27 5 -17 2 9 2 25 0 35 -3 9 -5 1 -5 -18z"/>
<path d="M1152 5020 c0 -14 2 -19 5 -12 2 6 2 18 0 25 -3 6 -5 1 -5 -13z"/>
<path d="M1152 4770 c0 -14 2 -19 5 -12 2 6 2 18 0 25 -3 6 -5 1 -5 -13z"/>
<path d="M1203 4680 c0 -25 2 -35 4 -22 2 12 2 32 0 45 -2 12 -4 2 -4 -23z"/>
<path d="M1192 4568 c-14 -14 -16 -44 -4 -52 4 -2 8 7 7 21 0 36 22 41 28 6
l5 -28 -2 29 c-1 33 -15 43 -34 24z"/>
<path d="M1985 4569 c-4 -6 -4 -13 -1 -16 3 -4 6 -1 6 5 0 6 8 13 18 15 15 4
15 5 0 6 -9 0 -20 -4 -23 -10z"/>
<path d="M2768 4545 c2 -19 6 -35 8 -35 2 0 4 16 4 35 0 19 -4 35 -8 35 -4 0
-6 -16 -4 -35z"/>
<path d="M2828 4573 c7 -3 16 -2 19 1 4 3 -2 6 -13 5 -11 0 -14 -3 -6 -6z"/>
<path d="M3611 4558 c1 -16 3 -18 6 -6 2 9 12 19 21 21 12 3 10 5 -5 6 -18 1
-23 -4 -22 -21z"/>
<path d="M4358 4573 c7 -3 16 -2 19 1 4 3 -2 6 -13 5 -11 0 -14 -3 -6 -6z"/>
<path d="M4414 4569 c-5 -8 -3 -9 6 -4 7 4 16 2 22 -6 8 -12 9 -12 6 0 -6 20
-24 25 -34 10z"/>
<path d="M5153 4573 c22 -6 22 -21 0 -47 -16 -19 -15 -19 6 1 26 24 23 54 -6
52 -17 -1 -17 -2 0 -6z"/>
<path d="M5218 4573 c7 -3 16 -2 19 1 4 3 -2 6 -13 5 -11 0 -14 -3 -6 -6z"/>
<path d="M5953 4574 c20 -6 23 -24 5 -24 -9 0 -10 -3 -2 -8 6 -4 14 -14 17
-22 3 -8 5 1 4 20 -2 27 -7 35 -22 37 -16 1 -16 1 -2 -3z"/>
<path d="M6007 4573 c-10 -9 -9 -51 1 -57 5 -3 6 9 4 26 -4 23 -1 29 9 26 8
-3 14 -17 14 -31 -1 -14 3 -23 7 -21 12 8 10 38 -4 52 -14 14 -22 15 -31 5z"/>
<path d="M6753 4574 c20 -6 23 -24 5 -24 -9 0 -10 -3 -2 -8 6 -4 14 -14 17
-22 3 -8 5 1 4 20 -2 27 -7 35 -22 37 -16 1 -16 1 -2 -3z"/>
<path d="M6801 4558 c1 -16 3 -18 6 -6 2 9 12 19 21 21 12 3 10 5 -5 6 -18 1
-23 -4 -22 -21z"/>
<path d="M7550 4565 c-9 -11 -10 -16 -2 -11 8 4 12 1 12 -9 0 -11 -5 -15 -15
-11 -8 3 -15 2 -15 -3 0 -11 39 -22 43 -13 2 4 1 20 -2 36 -6 28 -7 28 -21 11z"/>
<path d="M7605 4571 c-3 -7 0 -8 9 -5 10 4 16 -3 19 -23 l4 -28 -1 29 c-1 30
-19 46 -31 27z"/>
<path d="M8340 4555 c-14 -27 -13 -31 10 -37 17 -3 20 1 20 37 0 32 -13 32
-30 0z m16 -22 c-10 -10 -19 5 -10 18 6 11 8 11 12 0 2 -7 1 -15 -2 -18z"/>
<path d="M8408 4573 c7 -3 16 -2 19 1 4 3 -2 6 -13 5 -11 0 -14 -3 -6 -6z"/>
<path d="M2810 4541 c0 -11 4 -22 9 -25 4 -3 6 6 3 19 -5 30 -12 33 -12 6z"/>
<path d="M2848 4537 c-3 -19 -2 -25 4 -19 6 6 8 18 6 28 -3 14 -5 12 -10 -9z"/>
<path d="M4360 4535 c-13 -14 -19 -25 -14 -25 8 1 50 50 41 50 -2 0 -14 -11
-27 -25z"/>
<path d="M2009 4541 c8 -5 10 -14 6 -22 -6 -11 -5 -11 5 -2 14 12 6 33 -13 33
-8 0 -7 -3 2 -9z"/>
<path d="M3635 4540 c3 -5 8 -10 11 -10 2 0 4 5 4 10 0 6 -5 10 -11 10 -5 0
-7 -4 -4 -10z"/>
<path d="M5234 4542 c4 -7 2 -21 -5 -30 -12 -15 -11 -15 6 0 16 15 17 20 6 30
-11 11 -13 10 -7 0z"/>
<path d="M6827 4530 c3 -11 7 -20 9 -20 2 0 4 9 4 20 0 11 -4 20 -9 20 -5 0
-7 -9 -4 -20z"/>
<path d="M8419 4541 c8 -5 10 -14 6 -22 -6 -11 -5 -11 5 -2 14 12 6 33 -13 33
-8 0 -7 -3 2 -9z"/>
<path d="M5023 4395 c0 -27 2 -38 4 -22 2 15 2 37 0 50 -2 12 -4 0 -4 -28z"/>
<path d="M4622 4398 c2 -17 9 -33 16 -34 7 -1 8 0 2 3 -14 7 -13 40 2 45 7 3
5 7 -6 11 -15 6 -17 2 -14 -25z"/>
<path d="M4672 4390 c0 -19 2 -27 5 -17 2 9 2 25 0 35 -3 9 -5 1 -5 -18z"/>
<path d="M4701 4387 c2 -28 3 -29 6 -6 3 21 10 26 33 26 23 0 30 -5 33 -26 4
-23 4 -22 6 5 1 30 -1 32 -39 32 -39 1 -40 0 -39 -31z"/>
<path d="M4804 4406 c-10 -25 3 -46 28 -45 l23 2 -22 4 c-15 3 -23 12 -23 24
0 20 25 27 33 9 3 -6 4 -5 3 2 -4 19 -35 22 -42 4z"/>
<path d="M4958 4413 c6 -2 18 -2 25 0 6 3 1 5 -13 5 -14 0 -19 -2 -12 -5z"/>
<path d="M4965 4388 c19 -11 19 -11 0 -19 -16 -6 -17 -8 -3 -8 23 -1 34 19 17
30 -8 5 -18 9 -24 9 -5 -1 -1 -6 10 -12z"/>
<path d="M1204 2230 c1 -751 2 -1234 3 -1073 l3 292 38 4 37 4 -37 1 -38 2 0
189 0 190 38 4 37 4 -37 1 -38 2 0 189 0 190 38 4 37 4 -37 1 -38 2 0 574 0
575 38 4 37 4 -37 1 -37 2 -4 98 c-1 53 -3 -517 -3 -1268z"/>
<path d="M7820 3413 c0 -21 4 -33 8 -27 4 6 15 13 25 17 25 9 17 41 -11 45
-19 3 -22 -1 -22 -35z m40 12 c0 -8 -7 -15 -15 -15 -8 0 -15 7 -15 15 0 8 7
15 15 15 8 0 15 -7 15 -15z"/>
<path d="M7895 3441 c17 -8 18 -10 3 -10 -26 -1 -22 -31 3 -31 28 0 23 44 -6
47 l-20 3 20 -9z"/>
<path d="M7940 3441 c0 -6 6 -8 14 -5 9 4 16 -3 19 -18 5 -22 5 -22 4 2 -2 24
-37 44 -37 21z"/>
<path d="M1076 3428 c17 -28 13 -57 -9 -62 -18 -4 -18 -4 3 -3 20 2 25 8 26
34 1 20 -4 34 -13 37 -9 4 -11 2 -7 -6z"/>
<path d="M1123 3398 c3 -39 22 -47 37 -16 10 21 10 21 -3 6 -20 -25 -25 -23
-31 12 l-6 30 3 -32z"/>
<path d="M7822 3310 c0 -14 2 -19 5 -12 2 6 2 18 0 25 -3 6 -5 1 -5 -13z"/>
<path d="M7883 3317 c4 -10 7 -26 7 -35 1 -15 2 -15 11 1 8 13 6 22 -7 35 -17
16 -18 16 -11 -1z"/>
<path d="M7930 3310 c0 -11 2 -20 4 -20 2 0 6 9 9 20 3 11 1 20 -4 20 -5 0 -9
-9 -9 -20z"/>
<path d="M8002 3310 c0 -14 2 -19 5 -12 2 6 2 18 0 25 -3 6 -5 1 -5 -13z"/>
<path d="M8062 3310 c-16 -26 -15 -30 6 -29 11 0 12 2 4 6 -10 4 -9 9 4 24 9
10 13 19 8 19 -5 0 -15 -9 -22 -20z"/>
<path d="M8144 3316 c-16 -12 -17 -17 -6 -28 11 -11 12 -10 7 5 -8 19 10 24
18 5 3 -7 6 -3 6 10 1 26 1 26 -25 8z"/>
<path d="M8194 3310 c0 -9 5 -17 11 -17 6 0 11 8 11 17 0 9 -5 17 -11 17 -6 0
-11 -8 -11 -17z"/>
<path d="M8242 3310 c0 -14 2 -19 5 -12 2 6 2 18 0 25 -3 6 -5 1 -5 -13z"/>
<path d="M8260 3321 c0 -5 8 -12 17 -15 15 -6 15 -8 3 -17 -13 -9 -13 -10 -1
-7 23 6 23 22 1 36 -11 7 -20 8 -20 3z"/>
<path d="M7851 3284 c0 -11 3 -14 6 -6 3 7 2 16 -1 19 -3 4 -6 -2 -5 -13z"/>
<path d="M6045 3257 c-4 -17 -2 -66 3 -107 l9 -75 2 108 c1 109 -3 133 -14 74z"/>
<path d="M5822 3110 c0 -19 2 -27 5 -17 2 9 2 25 0 35 -3 9 -5 1 -5 -18z"/>
<path d="M5814 2895 c0 -93 2 -133 3 -88 2 45 2 122 0 170 -1 48 -3 12 -3 -82z"/>
<path d="M1074 3037 c16 -12 16 -14 -4 -40 l-21 -27 28 1 c16 1 21 3 11 6 -16
4 -16 6 -1 30 14 21 14 26 2 34 -22 14 -35 11 -15 -4z"/>
<path d="M1124 3036 c-8 -22 -1 -59 13 -63 19 -7 35 34 23 57 -13 23 -28 26
-36 6z m30 -11 c6 -18 -2 -45 -15 -45 -5 0 -9 14 -9 30 0 32 14 40 24 15z"/>
<path d="M5834 2900 c0 -63 1 -89 3 -57 2 31 2 83 0 115 -2 31 -3 5 -3 -58z"/>
<path d="M6034 2655 c0 -88 2 -123 3 -77 2 46 2 118 0 160 -1 42 -3 5 -3 -83z"/>
<path d="M6064 2710 c0 -58 1 -81 3 -52 2 28 2 76 0 105 -2 28 -3 5 -3 -53z"/>
<path d="M5013 2645 c0 -22 2 -30 4 -17 2 12 2 30 0 40 -3 9 -5 -1 -4 -23z"/>
<path d="M4982 2645 c0 -16 2 -22 5 -12 2 9 2 23 0 30 -3 6 -5 -1 -5 -18z"/>
<path d="M1068 2625 c2 -19 7 -35 11 -35 4 0 5 16 3 35 -2 19 -7 35 -11 35 -4
0 -5 -16 -3 -35z"/>
<path d="M1124 2646 c-3 -8 -4 -25 -1 -38 3 -17 5 -15 6 10 1 36 8 40 28 15
13 -16 13 -16 3 5 -12 25 -28 29 -36 8z"/>
<path d="M4670 2605 c0 -8 2 -15 4 -15 2 0 6 7 10 15 3 8 1 15 -4 15 -6 0 -10
-7 -10 -15z"/>
<path d="M4711 2603 c-1 -12 -6 -23 -13 -25 -7 -3 -9 -11 -4 -24 7 -16 10 -15
18 14 5 19 7 39 4 45 -2 7 -5 2 -5 -10z"/>
<path d="M5371 2604 c0 -11 3 -14 6 -6 3 7 2 16 -1 19 -3 4 -6 -2 -5 -13z"/>
<path d="M5621 2565 c0 -42 3 -54 9 -40 7 16 9 12 11 -20 1 -27 3 -32 6 -15 2
14 -3 50 -11 80 l-15 55 0 -60z"/>
<path d="M1146 2593 c-6 -14 -5 -15 5 -6 7 7 10 15 7 18 -3 3 -9 -2 -12 -12z"/>
<path d="M4915 2580 c-4 -17 -4 -34 -1 -37 3 -4 6 3 6 15 0 11 6 22 13 25 9 3
9 7 1 17 -9 9 -14 5 -19 -20z"/>
<path d="M5972 2575 c0 -22 4 -67 8 -100 l7 -60 1 50 c0 28 -3 73 -8 100 -7
48 -7 48 -8 10z"/>
<path d="M893 2573 c15 -2 37 -2 50 0 12 2 0 4 -28 4 -27 0 -38 -2 -22 -4z"/>
<path d="M4940 2521 c1 -25 1 -25 15 -7 19 25 19 33 0 33 -10 0 -15 -10 -15
-26z"/>
<path d="M5302 2531 c-13 -11 -18 -22 -13 -35 6 -16 9 -14 24 15 12 25 17 29
17 14 0 -17 2 -17 10 -5 5 8 10 18 10 21 0 11 -28 5 -48 -10z"/>
<path d="M5383 2505 c0 -27 2 -38 4 -22 2 15 2 37 0 50 -2 12 -4 0 -4 -28z"/>
<path d="M5804 2465 c0 -49 1 -71 3 -48 2 23 2 64 0 90 -2 26 -3 8 -3 -42z"/>
<path d="M890 2517 c0 -44 58 -42 61 2 1 9 4 6 10 -9 l8 -25 -2 25 c-2 21 -8
25 -39 28 -34 3 -38 1 -38 -21z m46 2 c8 -14 -18 -31 -30 -19 -9 9 0 30 14 30
5 0 12 -5 16 -11z"/>
<path d="M4663 2480 c0 -36 2 -50 4 -32 2 17 2 47 0 65 -2 17 -4 3 -4 -33z"/>
<path d="M5260 2520 c0 -11 4 -20 9 -20 5 0 7 9 4 20 -3 11 -7 20 -9 20 -2 0
-4 -9 -4 -20z"/>
<path d="M5022 2480 c0 -19 2 -27 5 -17 2 9 2 25 0 35 -3 9 -5 1 -5 -18z"/>
<path d="M5844 2415 c0 -55 1 -76 3 -47 2 29 2 74 0 100 -2 26 -3 2 -3 -53z"/>
<path d="M4902 2470 c0 -14 2 -19 5 -12 2 6 2 18 0 25 -3 6 -5 1 -5 -13z"/>
<path d="M6217 2477 c-4 -10 -7 -28 -6 -40 0 -21 1 -21 10 2 5 14 8 32 7 40
-3 13 -5 13 -11 -2z"/>
<path d="M893 2454 c-7 -20 10 -37 33 -32 11 2 20 12 20 26 1 19 1 19 -3 2 -6
-26 -23 -26 -23 0 0 24 -18 27 -27 4z m14 -16 c-3 -8 -6 -5 -6 6 -1 11 2 17 5
13 3 -3 4 -12 1 -19z"/>
<path d="M4723 2430 c0 -25 2 -35 4 -22 2 12 2 32 0 45 -2 12 -4 2 -4 -23z"/>
<path d="M5242 2400 c0 -14 2 -19 5 -12 2 6 2 18 0 25 -3 6 -5 1 -5 -13z"/>
<path d="M6332 2390 c0 -19 2 -27 5 -17 2 9 2 25 0 35 -3 9 -5 1 -5 -18z"/>
<path d="M5652 2390 c0 -14 2 -19 5 -12 2 6 2 18 0 25 -3 6 -5 1 -5 -13z"/>
<path d="M6022 2380 c0 -19 2 -27 5 -17 2 9 2 25 0 35 -3 9 -5 1 -5 -18z"/>
<path d="M6230 2401 c0 -6 4 -13 10 -16 6 -3 7 1 4 9 -7 18 -14 21 -14 7z"/>
<path d="M876 2392 c6 -4 13 -15 17 -25 10 -26 51 -18 55 11 3 20 -1 22 -40
22 -24 0 -38 -4 -32 -8z m64 -17 c0 -8 -9 -15 -20 -15 -11 0 -20 7 -20 15 0 8
9 15 20 15 11 0 20 -7 20 -15z"/>
<path d="M5592 2365 c0 -16 2 -22 5 -12 2 9 2 23 0 30 -3 6 -5 -1 -5 -18z"/>
<path d="M7592 2360 c0 -14 2 -19 5 -12 2 6 2 18 0 25 -3 6 -5 1 -5 -13z"/>
<path d="M5392 2345 c0 -16 2 -22 5 -12 2 9 2 23 0 30 -3 6 -5 -1 -5 -18z"/>
<path d="M7642 2350 c0 -14 2 -19 5 -12 2 6 2 18 0 25 -3 6 -5 1 -5 -13z"/>
<path d="M5992 2340 c-1 -14 5 -36 13 -50 9 -16 14 -19 15 -9 0 8 -4 19 -9 25
-5 5 -11 20 -14 34 l-4 25 -1 -25z"/>
<path d="M4653 2310 c0 -25 2 -35 4 -22 2 12 2 32 0 45 -2 12 -4 2 -4 -23z"/>
<path d="M5662 2330 c0 -14 2 -19 5 -12 2 6 2 18 0 25 -3 6 -5 1 -5 -13z"/>
<path d="M5682 2330 c0 -14 2 -19 5 -12 2 6 2 18 0 25 -3 6 -5 1 -5 -13z"/>
<path d="M6299 2329 c-7 -13 -7 -19 -1 -15 6 4 12 -6 15 -21 3 -20 4 -16 6 15
1 47 -3 52 -20 21z"/>
<path d="M4892 2310 c0 -19 2 -27 5 -17 2 9 2 25 0 35 -3 9 -5 1 -5 -18z"/>
<path d="M6261 2314 c0 -11 3 -14 6 -6 3 7 2 16 -1 19 -3 4 -6 -2 -5 -13z"/>
<path d="M893 2313 c15 -2 37 -2 50 0 12 2 0 4 -28 4 -27 0 -38 -2 -22 -4z"/>
<path d="M5031 2304 c0 -11 3 -14 6 -6 3 7 2 16 -1 19 -3 4 -6 -2 -5 -13z"/>
<path d="M1991 2300 c0 -8 4 -24 9 -35 5 -13 9 -14 9 -5 0 8 -4 24 -9 35 -5
13 -9 14 -9 5z"/>
<path d="M2162 2293 c-1 -13 -6 -23 -12 -23 -5 0 -10 -10 -10 -22 0 -17 3 -19
9 -9 6 9 11 10 15 2 4 -6 13 -11 19 -11 9 0 9 2 0 8 -6 4 -13 23 -16 42 -2 19
-5 25 -5 13z"/>
<path d="M2262 2285 c0 -16 2 -22 5 -12 2 9 2 23 0 30 -3 6 -5 -1 -5 -18z"/>
<path d="M2451 2294 c0 -11 3 -14 6 -6 3 7 2 16 -1 19 -3 4 -6 -2 -5 -13z"/>
<path d="M2470 2293 c0 -13 5 -23 10 -23 6 0 11 -10 11 -22 1 -14 3 -17 6 -7
2 8 -3 28 -12 45 -13 26 -15 27 -15 7z"/>
<path d="M5582 2290 c0 -14 2 -19 5 -12 2 6 2 18 0 25 -3 6 -5 1 -5 -13z"/>
<path d="M7426 2279 c-8 -42 0 -50 9 -9 4 17 5 34 2 36 -2 3 -7 -10 -11 -27z"/>
<path d="M7650 2293 c0 -13 4 -23 9 -23 11 0 24 31 16 38 -3 3 -5 -1 -5 -9 0
-11 -2 -11 -10 1 -8 12 -10 11 -10 -7z"/>
<path d="M5221 2284 c0 -11 3 -14 6 -6 3 7 2 16 -1 19 -3 4 -6 -2 -5 -13z"/>
<path d="M5702 2260 c0 -14 2 -19 5 -12 2 6 2 18 0 25 -3 6 -5 1 -5 -13z"/>
<path d="M1114 2245 c-4 -15 -2 -31 3 -36 5 -5 9 2 8 18 0 14 6 28 14 31 10 3
13 -3 9 -27 -3 -19 -1 -28 5 -22 14 14 4 55 -15 59 -12 2 -19 -5 -24 -23z"/>
<path d="M2786 2255 c-9 -26 -7 -32 5 -12 6 10 9 21 6 23 -2 3 -7 -2 -11 -11z"/>
<path d="M2987 2256 c-4 -10 -5 -21 -2 -24 9 -9 17 6 13 25 -3 17 -4 17 -11
-1z"/>
<path d="M3178 2253 c-6 -21 -3 -23 30 -22 30 2 32 3 10 6 -15 2 -28 12 -30
21 -3 13 -5 12 -10 -5z"/>
<path d="M3817 2250 c-3 -11 -1 -20 4 -20 5 0 9 9 9 20 0 11 -2 20 -4 20 -2 0
-6 -9 -9 -20z"/>
<path d="M4294 2256 c-5 -14 -9 -15 -15 -4 -7 10 -9 9 -9 -4 0 -23 26 -23 34
-2 4 9 4 19 1 22 -2 3 -8 -3 -11 -12z"/>
<path d="M4447 2256 c-4 -10 -5 -21 -2 -24 9 -9 17 6 13 25 -3 17 -4 17 -11
-1z"/>
<path d="M6647 2253 c3 -15 13 -23 27 -22 15 0 16 2 6 6 -8 4 -20 13 -27 22
-10 14 -11 13 -6 -6z"/>
<path d="M7560 2250 c6 -11 12 -20 14 -20 2 0 2 9 -1 20 -3 11 -9 20 -15 20
-5 0 -4 -9 2 -20z"/>
<path d="M7847 2250 c-3 -11 -2 -20 3 -20 4 0 10 9 13 20 3 11 2 20 -3 20 -4
0 -10 -9 -13 -20z"/>
<path d="M7915 2257 c-4 -10 -5 -21 -1 -24 10 -10 18 4 13 24 -4 17 -4 17 -12
0z"/>
<path d="M902 2251 c-23 -14 -10 -46 18 -46 19 0 26 6 27 25 l3 25 -12 -25
-11 -25 -6 27 c-4 20 -10 25 -19 19z"/>
<path d="M4111 2244 c0 -11 3 -14 6 -6 3 7 2 16 -1 19 -3 4 -6 -2 -5 -13z"/>
<path d="M5721 2244 c0 -11 3 -14 6 -6 3 7 2 16 -1 19 -3 4 -6 -2 -5 -13z"/>
<path d="M6590 2240 c0 -5 5 -10 10 -10 6 0 10 5 10 10 0 6 -4 10 -10 10 -5 0
-10 -4 -10 -10z"/>
<path d="M2618 2233 c7 -3 16 -2 19 1 4 3 -2 6 -13 5 -11 0 -14 -3 -6 -6z"/>
<path d="M2848 2233 c7 -3 16 -2 19 1 4 3 -2 6 -13 5 -11 0 -14 -3 -6 -6z"/>
<path d="M4058 2233 c7 -3 16 -2 19 1 4 3 -2 6 -13 5 -11 0 -14 -3 -6 -6z"/>
<path d="M6908 2233 c7 -3 16 -2 19 1 4 3 -2 6 -13 5 -11 0 -14 -3 -6 -6z"/>
<path d="M6978 2233 c7 -3 16 -2 19 1 4 3 -2 6 -13 5 -11 0 -14 -3 -6 -6z"/>
<path d="M7043 2233 c9 -2 23 -2 30 0 6 3 -1 5 -18 5 -16 0 -22 -2 -12 -5z"/>
<path d="M1840 2223 c0 -4 5 -15 10 -23 8 -13 10 -13 10 2 0 9 -4 20 -10 23
-5 3 -10 3 -10 -2z"/>
<path d="M1922 2210 c0 -14 2 -19 5 -12 2 6 2 18 0 25 -3 6 -5 1 -5 -13z"/>
<path d="M2300 2219 c0 -5 5 -7 10 -4 6 3 10 8 10 11 0 2 -4 4 -10 4 -5 0 -10
-5 -10 -11z"/>
<path d="M3291 2214 c0 -11 3 -14 6 -6 3 7 2 16 -1 19 -3 4 -6 -2 -5 -13z"/>
<path d="M7110 2215 c0 -8 2 -15 4 -15 2 0 6 7 10 15 3 8 1 15 -4 15 -6 0 -10
-7 -10 -15z"/>
<path d="M2082 2190 c0 -19 2 -27 5 -17 2 9 2 25 0 35 -3 9 -5 1 -5 -18z"/>
<path d="M2215 2210 c3 -5 8 -10 11 -10 2 0 4 5 4 10 0 6 -5 10 -11 10 -5 0
-7 -4 -4 -10z"/>
<path d="M2880 2211 c0 -6 4 -13 10 -16 6 -3 7 1 4 9 -7 18 -14 21 -14 7z"/>
<path d="M4361 2204 c0 -11 3 -14 6 -6 3 7 2 16 -1 19 -3 4 -6 -2 -5 -13z"/>
<path d="M2420 2196 c0 -8 5 -18 10 -21 6 -3 10 1 10 9 0 8 -4 18 -10 21 -5 3
-10 -1 -10 -9z"/>
<path d="M2320 2190 c0 -8 5 -22 10 -30 9 -13 10 -13 10 0 0 8 -5 22 -10 30
-9 13 -10 13 -10 0z"/>
<path d="M5412 2170 c0 -19 2 -27 5 -17 2 9 2 25 0 35 -3 9 -5 1 -5 -18z"/>
<path d="M7376 2168 c-9 -17 -16 -36 -16 -42 0 -11 20 24 33 57 11 28 0 19
-17 -15z"/>
<path d="M7497 2179 c6 -22 23 -26 23 -5 0 8 -6 16 -14 19 -10 4 -12 0 -9 -14z"/>
<path d="M2277 2170 c3 -11 7 -20 9 -20 2 0 4 9 4 20 0 11 -4 20 -9 20 -5 0
-7 -9 -4 -20z"/>
<path d="M4882 2165 c0 -16 2 -22 5 -12 2 9 2 23 0 30 -3 6 -5 -1 -5 -18z"/>
<path d="M5213 2155 c0 -22 2 -30 4 -17 2 12 2 30 0 40 -3 9 -5 -1 -4 -23z"/>
<path d="M5572 2165 c0 -16 2 -22 5 -12 2 9 2 23 0 30 -3 6 -5 -1 -5 -18z"/>
<path d="M7252 2170 c0 -14 2 -19 5 -12 2 6 2 18 0 25 -3 6 -5 1 -5 -13z"/>
<path d="M888 2173 c12 -2 32 -2 45 0 12 2 2 4 -23 4 -25 0 -35 -2 -22 -4z"/>
<path d="M6194 2090 c0 -52 1 -74 3 -47 2 26 2 68 0 95 -2 26 -3 4 -3 -48z"/>
<path d="M7267 2140 c-3 -11 -1 -20 4 -20 5 0 9 9 9 20 0 11 -2 20 -4 20 -2 0
-6 -9 -9 -20z"/>
<path d="M892 2128 c4 -33 47 -38 55 -7 6 22 7 22 14 3 7 -18 8 -17 8 4 1 19
-4 22 -40 22 -36 0 -40 -2 -37 -22z m46 0 c-7 -19 -38 -22 -38 -4 0 10 9 16
21 16 12 0 19 -5 17 -12z"/>
<path d="M5854 2010 c0 -80 2 -112 3 -72 2 39 2 105 0 145 -1 39 -3 7 -3 -73z"/>
<path d="M4742 2080 c0 -19 2 -27 5 -17 2 9 2 25 0 35 -3 9 -5 1 -5 -18z"/>
<path d="M5422 2070 c0 -19 2 -27 5 -17 2 9 2 25 0 35 -3 9 -5 1 -5 -18z"/>
<path d="M903 2083 c-7 -2 -13 -16 -13 -29 0 -21 5 -24 33 -23 l32 1 -28 10
c-33 12 -31 30 4 39 19 6 20 7 4 7 -11 0 -26 -2 -32 -5z"/>
<path d="M5052 2065 c0 -16 2 -22 5 -12 2 9 2 23 0 30 -3 6 -5 -1 -5 -18z"/>
<path d="M5562 2060 c0 -19 2 -27 5 -17 2 9 2 25 0 35 -3 9 -5 1 -5 -18z"/>
<path d="M6141 2068 c0 -9 -4 -25 -7 -35 -5 -17 -5 -17 6 0 6 10 9 25 7 35 -4
15 -5 15 -6 0z"/>
<path d="M5203 2035 c0 -22 2 -30 4 -17 2 12 2 30 0 40 -3 9 -5 -1 -4 -23z"/>
<path d="M5953 2020 c0 -30 2 -43 4 -27 2 15 2 39 0 55 -2 15 -4 2 -4 -28z"/>
<path d="M4873 2025 c0 -22 2 -30 4 -17 2 12 2 30 0 40 -3 9 -5 -1 -4 -23z"/>
<path d="M891 1988 c1 -19 2 -20 6 -5 5 18 6 17 20 -2 16 -24 33 -19 33 10 0
14 -7 19 -30 19 -25 0 -30 -4 -29 -22z m49 -4 c0 -8 -4 -12 -10 -9 -5 3 -10
10 -10 16 0 5 5 9 10 9 6 0 10 -7 10 -16z"/>
<path d="M5062 1985 c0 -16 2 -22 5 -12 2 9 2 23 0 30 -3 6 -5 -1 -5 -18z"/>
<path d="M5431 1984 c0 -11 3 -14 6 -6 3 7 2 16 -1 19 -3 4 -6 -2 -5 -13z"/>
<path d="M5460 1970 c0 -5 5 -10 10 -10 6 0 10 5 10 10 0 6 -4 10 -10 10 -5 0
-10 -4 -10 -10z"/>
<path d="M6102 1950 c0 -14 2 -19 5 -12 2 6 2 18 0 25 -3 6 -5 1 -5 -13z"/>
<path d="M6153 1895 c0 -38 2 -53 4 -32 2 20 2 52 0 70 -2 17 -4 1 -4 -38z"/>
<path d="M5071 1934 c0 -11 3 -14 6 -6 3 7 2 16 -1 19 -3 4 -6 -2 -5 -13z"/>
<path d="M5512 1934 c-11 -12 -10 -14 3 -14 8 0 15 -9 15 -20 0 -11 7 -20 15
-20 9 0 15 9 14 23 -1 20 -2 20 -7 2 -4 -17 -6 -15 -16 11 -9 27 -13 30 -24
18z"/>
<path d="M5892 1930 c0 -14 2 -19 5 -12 2 6 2 18 0 25 -3 6 -5 1 -5 -13z"/>
<path d="M5447 1927 c-4 -10 -7 -26 -7 -35 1 -15 2 -15 11 1 6 10 9 25 7 35
-3 16 -4 15 -11 -1z"/>
<path d="M6116 1922 c-4 -13 -5 -26 -2 -29 10 -11 18 4 14 29 l-4 23 -8 -23z"/>
<path d="M5192 1900 c0 -14 2 -19 5 -12 2 6 2 18 0 25 -3 6 -5 1 -5 -13z"/>
<path d="M4861 1894 c0 -11 3 -14 6 -6 3 7 2 16 -1 19 -3 4 -6 -2 -5 -13z"/>
<path d="M5883 1860 c0 -25 2 -35 4 -22 2 12 2 32 0 45 -2 12 -4 2 -4 -23z"/>
<path d="M4761 1867 c0 -21 1 -21 8 -2 l8 20 5 -20 c4 -20 4 -20 9 0 5 16 1
21 -12 22 -13 1 -19 -5 -18 -20z"/>
<path d="M1058 1873 c6 -2 12 -15 12 -28 0 -13 -6 -26 -12 -28 -7 -3 -4 -6 7
-6 18 -1 20 4 17 34 -3 25 -9 35 -21 34 -10 0 -11 -2 -3 -6z"/>
<path d="M1114 1866 c-10 -26 1 -51 21 -51 22 0 34 40 18 56 -6 6 -8 -2 -5
-21 3 -23 1 -30 -13 -30 -14 0 -16 7 -13 30 5 32 1 39 -8 16z"/>
<path d="M5140 1866 c0 -8 4 -17 9 -20 5 -4 7 3 4 14 -6 23 -13 26 -13 6z"/>
<path d="M5902 1855 c0 -16 2 -22 5 -12 2 9 2 23 0 30 -3 6 -5 -1 -5 -18z"/>
<path d="M5181 1854 c0 -11 3 -14 6 -6 3 7 2 16 -1 19 -3 4 -6 -2 -5 -13z"/>
<path d="M5943 1830 c0 -25 2 -35 4 -22 2 12 2 32 0 45 -2 12 -4 2 -4 -23z"/>
<path d="M4840 1830 c0 -11 -5 -20 -12 -20 -6 0 -9 -2 -6 -5 3 -3 13 -3 22 1
17 7 23 44 6 44 -5 0 -10 -9 -10 -20z"/>
<path d="M6183 1705 c0 -44 2 -61 4 -37 2 23 2 59 0 80 -2 20 -4 1 -4 -43z"/>
<path d="M5860 1725 c0 -22 5 -47 10 -55 7 -11 10 -4 10 25 0 22 -5 47 -10 55
-7 11 -10 4 -10 -25z"/>
<path d="M5913 1700 c0 -36 2 -50 4 -32 2 17 2 47 0 65 -2 17 -4 3 -4 -33z"/>
<path d="M6162 1660 c0 -19 2 -27 5 -17 2 9 2 25 0 35 -3 9 -5 1 -5 -18z"/>
<path d="M5928 1592 c-3 -9 -1 -26 3 -37 6 -15 8 -11 8 18 1 40 -4 48 -11 19z"/>
<path d="M6171 1584 c0 -11 3 -14 6 -6 3 7 2 16 -1 19 -3 4 -6 -2 -5 -13z"/>
<path d="M1055 1490 c-3 -6 1 -7 9 -4 21 8 21 -19 1 -36 -22 -18 -18 -30 8
-30 17 0 19 2 8 9 -12 8 -12 12 -2 25 14 17 9 46 -8 46 -5 0 -13 -4 -16 -10z"/>
<path d="M1120 1485 c-17 -21 -4 -67 18 -63 22 4 29 63 8 71 -8 3 -20 -1 -26
-8z m30 -31 c0 -26 -17 -33 -26 -9 -8 20 3 48 16 40 5 -3 10 -17 10 -31z"/>
<path d="M1063 1104 c19 -6 23 -24 5 -24 -6 0 -3 -6 8 -14 18 -14 18 -15 -6
-25 -15 -6 -19 -10 -9 -10 40 -2 43 72 4 76 -16 1 -17 1 -2 -3z"/>
<path d="M1122 1098 c-17 -17 -15 -43 3 -58 21 -18 37 0 33 36 -3 31 -18 40
-36 22z m28 -28 c0 -31 -16 -41 -26 -15 -8 19 2 45 16 45 5 0 10 -13 10 -30z"/>
<path d="M1192 798 c-14 -14 -16 -44 -4 -52 4 -2 8 7 7 21 0 36 22 41 28 6 l5
-28 -2 29 c-1 33 -15 43 -34 24z"/>
<path d="M1985 799 c-4 -6 -4 -13 -1 -16 3 -4 6 -1 6 5 0 6 8 13 18 15 15 4
15 5 0 6 -9 0 -20 -4 -23 -10z"/>
<path d="M2768 775 c2 -19 6 -35 8 -35 2 0 4 16 4 35 0 19 -4 35 -8 35 -4 0
-6 -16 -4 -35z"/>
<path d="M2828 803 c7 -3 16 -2 19 1 4 3 -2 6 -13 5 -11 0 -14 -3 -6 -6z"/>
<path d="M3611 788 c1 -16 3 -18 6 -6 2 9 12 19 21 21 12 3 10 5 -5 6 -18 1
-23 -4 -22 -21z"/>
<path d="M4358 803 c7 -3 16 -2 19 1 4 3 -2 6 -13 5 -11 0 -14 -3 -6 -6z"/>
<path d="M4414 799 c-5 -8 -3 -9 6 -4 7 4 16 2 22 -6 8 -12 9 -12 6 0 -6 20
-24 25 -34 10z"/>
<path d="M5153 803 c22 -6 22 -21 0 -47 -16 -19 -15 -19 6 1 26 24 23 54 -6
52 -17 -1 -17 -2 0 -6z"/>
<path d="M5218 803 c7 -3 16 -2 19 1 4 3 -2 6 -13 5 -11 0 -14 -3 -6 -6z"/>
<path d="M5953 804 c20 -6 23 -24 5 -24 -9 0 -10 -3 -2 -8 6 -4 14 -14 17 -22
3 -8 5 1 4 20 -2 27 -7 35 -22 37 -16 1 -16 1 -2 -3z"/>
<path d="M6007 803 c-10 -9 -9 -51 1 -57 5 -3 6 9 4 26 -4 23 -1 29 9 26 8 -3
14 -17 14 -31 -1 -14 3 -23 7 -21 12 8 10 38 -4 52 -14 14 -22 15 -31 5z"/>
<path d="M6753 804 c20 -6 23 -24 5 -24 -9 0 -10 -3 -2 -8 6 -4 14 -14 17 -22
3 -8 5 1 4 20 -2 27 -7 35 -22 37 -16 1 -16 1 -2 -3z"/>
<path d="M6801 788 c1 -16 3 -18 6 -6 2 9 12 19 21 21 12 3 10 5 -5 6 -18 1
-23 -4 -22 -21z"/>
<path d="M7550 795 c-9 -11 -10 -16 -2 -11 8 4 12 1 12 -9 0 -11 -5 -15 -15
-11 -8 3 -15 2 -15 -3 0 -11 39 -22 43 -13 2 4 1 20 -2 36 -6 28 -7 28 -21 11z"/>
<path d="M7605 801 c-3 -7 0 -8 9 -5 10 4 16 -3 19 -23 l4 -28 -1 29 c-1 30
-19 46 -31 27z"/>
<path d="M8340 785 c-14 -27 -13 -31 10 -37 17 -3 20 1 20 37 0 32 -13 32 -30
0z m16 -22 c-10 -10 -19 5 -10 18 6 11 8 11 12 0 2 -7 1 -15 -2 -18z"/>
<path d="M8408 803 c7 -3 16 -2 19 1 4 3 -2 6 -13 5 -11 0 -14 -3 -6 -6z"/>
<path d="M2810 771 c0 -11 4 -22 9 -25 4 -3 6 6 3 19 -5 30 -12 33 -12 6z"/>
<path d="M2848 767 c-3 -19 -2 -25 4 -19 6 6 8 18 6 28 -3 14 -5 12 -10 -9z"/>
<path d="M4360 765 c-13 -14 -19 -25 -14 -25 8 1 50 50 41 50 -2 0 -14 -11
-27 -25z"/>
<path d="M2009 771 c8 -5 10 -14 6 -22 -6 -11 -5 -11 5 -2 14 12 6 33 -13 33
-8 0 -7 -3 2 -9z"/>
<path d="M3635 770 c3 -5 8 -10 11 -10 2 0 4 5 4 10 0 6 -5 10 -11 10 -5 0 -7
-4 -4 -10z"/>
<path d="M5234 772 c4 -7 2 -21 -5 -30 -12 -15 -11 -15 6 0 16 15 17 20 6 30
-11 11 -13 10 -7 0z"/>
<path d="M6827 760 c3 -11 7 -20 9 -20 2 0 4 9 4 20 0 11 -4 20 -9 20 -5 0 -7
-9 -4 -20z"/>
<path d="M8419 771 c8 -5 10 -14 6 -22 -6 -11 -5 -11 5 -2 14 12 6 33 -13 33
-8 0 -7 -3 2 -9z"/>
<path d="M5023 625 c0 -27 2 -38 4 -22 2 15 2 37 0 50 -2 12 -4 0 -4 -28z"/>
<path d="M4622 628 c2 -17 9 -33 16 -34 7 -1 8 0 2 3 -14 7 -13 40 2 45 7 3 5
7 -6 11 -15 6 -17 2 -14 -25z"/>
<path d="M4672 620 c0 -19 2 -27 5 -17 2 9 2 25 0 35 -3 9 -5 1 -5 -18z"/>
<path d="M4701 617 c2 -28 3 -29 6 -6 3 21 10 26 33 26 23 0 30 -5 33 -26 4
-23 4 -22 6 5 1 30 -1 32 -39 32 -39 1 -40 0 -39 -31z"/>
<path d="M4804 636 c-10 -25 3 -46 28 -45 l23 2 -22 4 c-15 3 -23 12 -23 24 0
20 25 27 33 9 3 -6 4 -5 3 2 -4 19 -35 22 -42 4z"/>
<path d="M4958 643 c6 -2 18 -2 25 0 6 3 1 5 -13 5 -14 0 -19 -2 -12 -5z"/>
<path d="M4965 618 c19 -11 19 -11 0 -19 -16 -6 -17 -8 -3 -8 23 -1 34 19 17
30 -8 5 -18 9 -24 9 -5 -1 -1 -6 10 -12z"/>
</g>
</svg>
